<svg id="Layer_1" data-name="Layer 1" xmlns="http://www.w3.org/2000/svg" viewBox="0 0 305.48 314.44"><defs><style>.cls-1{fill:#ba7300;}.cls-1,.cls-4{stroke:#694100;}.cls-1,.cls-2,.cls-3,.cls-4,.cls-5{stroke-miterlimit:10;}.cls-2{fill:#f29fc5;}.cls-2,.cls-3{stroke:#f29fc5;}.cls-3{fill:#f9d0da;}.cls-4{fill:#694100;}.cls-5{fill:#3e3f92;stroke:#3e3f92;}</style></defs><g id="Layer_2" data-name="Layer 2"><g id="Layer_2-2" data-name="Layer 2-2"><g id="Cup"><path class="cls-1" d="M55.51,298S62,312.5,151,312.5,247.66,298,247.66,298l50.73-162.5H12.15Z"/><polygon class="cls-1" points="55.31 298.05 54.86 295.8 54.28 295.22 55.31 298.05"/><path class="cls-1" d="M54,287.24l-1.17-3.71c-.58,2.46-1-.54-.27,5.56.73,2,2.34,6.47,2.63,5.74a52.5,52.5,0,0,1-1.91-5.76c.59.85,1.17,3.22,1.9,4.22-.59-3.64-.88-2.17-1.76-6.11Z"/><path class="cls-1" d="M51.63,283.1c.29.29.58.6.73.5C52.06,283.29,51.33,281.52,51.63,283.1Z"/><path class="cls-1" d="M50.9,280.85c-.59-2.39.43-.08.43-.34L49.87,278Z"/><path class="cls-1" d="M48.31,271c-.13-.39-.25-.74-.36-1.1A2.18,2.18,0,0,0,48.31,271Z"/><path class="cls-1" d="M46.92,266.1a13.17,13.17,0,0,0,1,3.75v-.16c-.15-1.42.73-.28,1.17,1.95.73,2.27.16,2.21,1,4.11l-.3-2.85A35.65,35.65,0,0,0,46.92,266.1Z"/><path class="cls-1" d="M48.31,271c.13.4.26.82.38,1.28A3.39,3.39,0,0,0,48.31,271Z"/><polygon class="cls-1" points="49.57 275.93 50.01 277.12 50.16 276.77 49.57 275.93"/><path class="cls-1" d="M44.73,258c.86.37,1.46,5.82,2.19,6.3-.88-3.19-1-5.89-.45-5.3l-1.17-3.48C44.71,254.44,44.57,256.08,44.73,258Z"/><path class="cls-1" d="M44.7,250.6a5.41,5.41,0,0,1-.34-.78A3.62,3.62,0,0,0,44.7,250.6Z"/><path class="cls-1" d="M38.69,233l2.93,8.07a4.65,4.65,0,0,1-1.17-2.21c.88,3.69,1.47,4,2.2,7.08-.43,1.09-1.47-5.32-1.61-3.42.59,2.12,1.47,5.3,2.5,6.86l.44,3.5.43-1.35c-.15-1.41-1.31-2.6-1-3.58.2-.51.63.84,1,1.79-.73-2.15-1-6.12-2.29-10.52C40.73,234.6,39.86,236,38.69,233Z"/><polygon class="cls-1" points="39.41 232.49 39.56 231.88 39.27 232.36 39.41 232.49"/><path class="cls-1" d="M36.05,223.73l1.61,4.19a3.25,3.25,0,0,1-.08,1.12c.12-.22.72.86.81.64.14-2.15-1.61-5.2-2.35-7.48-1.33-6.19.44.18.43-2.37.44,1.72.29,1.82.88,4.21-.24-3.93-2.18-8.45-3-10.79a9,9,0,0,0,.37,2.25l-.88-2.43C34,215.79,34.43,218,36.05,223.73Z"/><path class="cls-1" d="M38.1,231.42a8.25,8.25,0,0,1-.53-2.36A4.23,4.23,0,0,0,38.1,231.42Z"/><path class="cls-1" d="M34,212a7.37,7.37,0,0,0,.36,1.3A7.37,7.37,0,0,0,34,212Z"/><path class="cls-1" d="M33.84,214.62l-.74-3v1.26C33.25,213.25,33.7,214.73,33.84,214.62Z"/><path class="cls-1" d="M49.51,137.12c-.28-.28-1.43-.42-3.84-.37.29-.37,3.41-.3,4.87-.51-3.18-.24.06-.44-.75-.8-3.55,0-5.13.45-8.94.35.19-.11.13-.27-.37-.4-4.57.23-12.33.58-16.8.26-2-.06-3.83-.06-5.65,0l-2.8.08-2.64.12.18.59,1.38,5.33c.5,1.9,1,3.81,1.51,5.73q1.56,5.76,3.14,11.61C20.91,166.92,23,174.88,25,183l1.31,2.11c-.14.87,1,3.84.45,3.5a26.46,26.46,0,0,0-.74-2.78c.31,3.62,2.5,9.16,3.38,13.36,0-.5.43-1.35.87-.12-.86-.12,1.33,4.9.75,6.36.89,4.2.73,0,1.76,4.32.58.34-.89-4.2-.75-5.07.74,1.25.89,4,1.32,3.62-1.62-7-6-19.6-9.1-30.13l.73,1c-1.75-5.34-4.11-14.11-4.56-18.63-.14,1.13-1.91-8.06-2.63-7a25.9,25.9,0,0,0-.74-3.81l-.44-.46c-.73-2.77-.15-2.45-1-5.62.15,2.18-.59-.1-1.17-.94l-.56-3.81a7.12,7.12,0,0,0-.13-.91v-.52c0-.25,0-.51,0-.76.44.07.77.14,1,.2h.5l.89.1a2.44,2.44,0,0,0-.53-.21l-.47-.12a.94.94,0,0,1-.22-.07l-.19-.06h1a2.06,2.06,0,0,0,.61-.11c.26-.1.32-.24.62-.31,2.2,0,2,.52,1.87.79,4,.17,5.85-.86,8.88-.52L26.62,136c4.17-.11,7.66.36,12.27.22,2.21.59-3.78.51-5.68.76.93.12,2.91.15,3.53.35,2-.3,5.27-.71,7.71-1C42.09,137.11,47.93,137.07,49.51,137.12Z"/><path class="cls-1" d="M36.71,137.42l-1.31.23a13,13,0,0,1,1.53,0C37,137.53,36.9,137.47,36.71,137.42Z"/><path class="cls-1" d="M49.51,137.12s.09,0,.1.06C50.06,137.15,49.91,137.13,49.51,137.12Z"/><path class="cls-1" d="M23.08,135.61h0Z"/><path class="cls-1" d="M19.65,137.56c-.89-.15-2.12-.3-3.51-.46C16.51,137.3,16.86,137.45,19.65,137.56Z"/><path class="cls-1" d="M19,155c.3.82.3.31.58.86C19.12,154.08,18.84,153.54,19,155Z"/><polygon class="cls-1" points="41.76 137.53 45.26 137.4 46.54 137.28 41.76 137.53"/><path class="cls-1" d="M112.57,135.3c-3.08-.51-7.61-.2-11.41-.3-7,.27-.88,1.12-7.49,1.18l1.13-1.06c-6.6.07-16-.15-21.6.77-.5-.13-1.66-.28.06-.44-4.42.05-2.29,1.51-8.18,1.16,5.5-.66-1.8-.62-.29-1.28l.86-.07c-3.74.07-8.68.41-11.14.37-.1.27,2,.69-1.25.72,1.33.05.8.36.68.63,3.42-.3,5.27-.12,7.34-.47,1.91.35-1.28.11.63.46l2.74-.33c2,.09-2.08.36,1.06.43a22.58,22.58,0,0,1,5.38-.38l-.71.12c1.88-.14,4.54,0,3.63-.55l2.22.58-.38-.4c5.15.16,7.09,1.11,13.75.62-1.6-.12-.14-.34.72-.42-2.78-.27-3.42.31-6.06.36-.39-.4,4.08-.88.89-1.11,3.5.47,6.62-.06,8.11.93,4.22.06,5.82-.43,10.11-.19l-.13.14c.79-.65,3.49.3,6.67-.37l-2.26-.15c.1-.27,1.2-.28,2.73-.33-.17.11-.17.11.33.24.46-.48,5.3-.56,5.91-.7-2-.08-4.53.31-6.91.44C110.92,135.62,110.56,135.21,112.57,135.3Z"/><path class="cls-1" d="M69,137l1.37-.23A5.38,5.38,0,0,0,69,137Z"/><path class="cls-1" d="M131.71,136.13c2.7.11-.73.41,1.79.62,2.74-.33-3.14-.67-.46-1.17,1.65.29,4.34-.21,5.44-.22-1.21.28-.51.92,0,1a49.13,49.13,0,0,1,5.15.15c-4.36-.4,3.66-.24-.28-.67.29-.37,4.4-.65,6.06-.36-.12.27-1.46.22-2.57.23-.9.51,2.77.27,3.39.74,4.15-.71,17.45-.66,13.67-1.81a21.64,21.64,0,0,0-4.18.11c4.32.23,0,.6-.33.81-1.84-.18-5,.18-4.28-.23l2.92-.43c-9.37-.22-22.18-.14-33,0h4.66c-.54.31-2.75.32-4.45.47l2.27.76c-1.34-.06-2.62,0-2.51-.22-1.64.32-.89.52.09.78-3.47.13-4-.17-6.73.33,5.78.62,4.89-.52,11.51,0Z"/><polygon class="cls-1" points="119.04 136.55 120.43 136.17 118.29 136.35 119.04 136.55"/><path class="cls-1" d="M121.25,134.88c.07.17-.78.24-.71.41C123.24,135.4,122.92,135.17,121.25,134.88Z"/><path class="cls-1" d="M153.78,136.53l3.48-.13-2.27-.15C155.05,136.42,154.21,136.5,153.78,136.53Z"/><path class="cls-1" d="M178.2,134.56c-4.84.08-6.9.44-12.36.05-2.68.49,1.25.93.1,1.38,2.71.1,2.37-.73,5.19-.89,1,.42,4.1-.1,6.79,0C177.59,134.93,177.59,134.73,178.2,134.56Z"/><path class="cls-1" d="M194.84,136.2c2.22,0,4.44-.33,6.19-.13a6,6,0,0,1-2.9.3c.87.61,2.45-.1,4.83.31-.2-.07-1.07-.17-.4-.3,5.94.14,3.34-.5,11.06-.15,1.11-.17,2.22-.17,2-.57,4.38.51,2.17.51,7.43,1-.2-.23-1.93-.77-1.89-1.28,7.44.71,7.6-.1,12.35.43a14.31,14.31,0,0,1-2.45.09c.61.71,4-.12,6.62,0l-.26.61c2.44-.1,6.65-.5,9.72,0l-.7.3c6.23-.46,13.51-.25,18.81-.48l2.86.38c7.32-.46-7.26-.21-1.91-1.11.8,1.11,3.77-.37,7.94.08,2,.44-4.21.23-2,.73.91-.57,2.22-.16,4.43-.33-.48.54,4.64.08,3.26.68l7.8-1a23.11,23.11,0,0,0,5.19.17c-4.21,0,1.16-.8-3.56-1-6.89.25-18.38.44-27,.15-.94.74-5.52,0-6.89.6-.2-.24-.85-.44-1-.68-5.55.16,1.3.41-.05.68-2.43.09-4.39-.35-4.16-.62-4,0-.44.2-2.47.6l-2.59-.81c-12.38.25-28.77.8-42.87.34l1.07.5c-6.39-.28-10.69,1.13-16.35,0l-1.93.44c1-.25-1.1-.76.56-1.11-1.73.17-3.58,0-5.38.14l3.19.24a11.14,11.14,0,0,1-5.44-.21c-4.77.51,2.84.88,3.89,1.3,6.71-.94,6.76.92,13.2.53C199,136.64,194.6,136.46,194.84,136.2Z"/><path class="cls-1" d="M186.51,134.81a5.83,5.83,0,0,0-1,.13A8.28,8.28,0,0,0,186.51,134.81Z"/><path class="cls-1" d="M292.82,135.85h1.88C295.33,135.7,294.32,135.78,292.82,135.85Z"/><polygon class="cls-1" points="174.71 136.34 176.5 136.36 176.19 136.13 174.71 136.34"/><path class="cls-1" d="M293.51,147.86l.25.1C293.7,147.78,293.64,147.69,293.51,147.86Z"/><path class="cls-1" d="M278.13,196.51l.34-1A6.93,6.93,0,0,0,278.13,196.51Z"/><path class="cls-1" d="M232.92,304.55c-1.57.52-3.43,1-5.17,1.6s-3.43,1-4.59,1.42l.19-.3c-1.7.54-7.35,1.82-3.59,1.71l.86-.36c4.08-1.2,3.1-.17,6.4-.64,3.89-1.05,5.86-2.56,9.29-3.41,1.47-.49,1.32-.2.95.16a17.7,17.7,0,0,0,3.75-1.79c.91-.67,1.72-1.2,2.75-1.86a1.15,1.15,0,0,0,.94.1,3.65,3.65,0,0,0,1.38-.61c.25-.16.52-.35.8-.55a8.27,8.27,0,0,0,.82-.77,3,3,0,0,0,.81-1.25l.29-1.2c.74-3.17,1.56-6.87,3-9.17.83-3.21,2.31-7.38,3.19-11.52-.19,2.29,1.22-3.78,1.49-2.73-.76-1.49,4.11-11.42,2.93-12.57,2.1-5.34,0-.26,2.27-6.45.16.06-.17,1.11-.28,1.54,1.08-2.41.6-4,1.89-5.89,1.68-5-.12-1,.44-4.08,1.81-5.2,1.53-3.66,3-6.39-.52-.68.78-3.7,1.23-6.38-.23.63-1.48,4.16-1,1.74,2-6.07,1.08-5,2.68-10.79,1.64-2.65-1.75,5.71.4.87-.79,3.72-1.67,6.45-1.74,8.56,1.56-4.84,3.28-10.79,4.62-16.18,1-2.91-.12,1.61.68-.68,2-5.15,1.76-8.3,3.39-12.39l.12,1c.28-2.71,3-9.23,4.24-14.19-.39.57-.64.93-.57.25.94.38,1.61-6.93,3.79-11.52-.73.19.39-4.58,1.25-7.56.49-1,.67-.68.83-.62-1.87,4.72-.8,4.89-1.71,8.8.68-3.28,2.65-8.44,3.07-11.35l.14,1.24c1.45-4.39.12-4.2,2-8.67l.21.56c1.36-4.45,3-9.24,4.51-13.86.75-2.3,1.47-4.57,2.1-6.73.32-1.08.61-2.14.88-3.16s.58-2.24.77-3.13l-1.16.09c-.41.13,0,.34.29.55a5.81,5.81,0,0,1-1.28,1.75c-.23,1-.44,1.95-.63,2.81s-.36,1.82-.53,2.65c-.31,1.68-.59,3.23-1,5l-.53-.22c.13.88-.92,5,.08,2.87-.58,2.85-1.14,1.94-1.81,5.22-.49-.45,0-2.36-.44-2.54l-.58,2.86c0-1-.71,1.59-.67.68-.9,5.33-2.49,7-3.84,12.44l1-2.91c.32.12-.24,1.8-.55,3.1-.9,1.3-1.1,2.18-2.15,4.84-.47,2.41-.31,3.89-1.3,7.06-.4-.87-2,5.15-2.67,5.58.4.87-1.69,6.19-1.48,6.74-.41,1.74-1.2,4-1.51,3.92.06-.25.15-.77.29-1.31l-.55,1.68c0-.18-.09-.14,0-.34-.48,1.5,0,1.65-1,3.51-.16-.07.17-1.13.38-2-1.36,4-1.28,7.32-2.87,10.48.08.76-1.34,5.4-.39,4.6-.61,1.18-1,.54-1.94,3.95-.07,2.11-1.38,3.72-1.84,6.4.5-3.6-.15-.07.24-3.23-.94,2.24-1.28,5.89-2.63,9.86-.26.37-.41.3-.67.68-.28,1.55-.37,3.4-1.27,4.71l.44-.06c-1,2.65-2.11,6.5-3.45,9.29l-.33,3.65c-2.21,4.34-3.44,10.72-3.91,14.56a21.28,21.28,0,0,1-1.63,4.09c.06-.41.16-1.1.3-1.91-.8,2.47-2.16,5.35-2,6.94-.61,2.59-1,1.73-1.69,3.59-.75,5.39-5.37,14.94-4.54,16.91.66-2.1,2.16-6,3.36-10-.17,1.11.34.36-.09,1.85-1.19,4-2.32,5.95-3.36,10l-.69-.73c-.37.82-.7,1.68-1,2.47-.07.3-.29.45-.58.76a8.39,8.39,0,0,1-.9.78c-.33.24-.64.51-1,.75l-1,.67a20.92,20.92,0,0,1-2.08,1.26,11.49,11.49,0,0,0-1,.59l-1.08.49c-.71.32-1.42.62-2.13.89A18.71,18.71,0,0,1,232.92,304.55Z"/><path class="cls-1" d="M258.26,262.08l-1.33,2.78.45-.19A13.18,13.18,0,0,1,258.26,262.08Z"/><path class="cls-1" d="M257.38,264.67c-.15.61-.26,1.2-.36,1.75a14,14,0,0,0,.48-1.8Z"/><path class="cls-1" d="M221.15,307.36c-.66.11-2,.21-3.26.52A13.28,13.28,0,0,0,221.15,307.36Z"/><polygon class="cls-1" points="217.7 308.18 219.23 308.08 219.43 307.95 217.7 308.18"/><path class="cls-1" d="M128.62,312.69l-4.92.36c-.85-.25-6.42-.25-4.6-.61-3,.46-9.27-.53-7,.52,14.39.66,34.28,1.59,50.94.44l-2.67.4a95.39,95.39,0,0,1,10-.25,33.09,33.09,0,0,0,8.76-.87l-.9.76a29.48,29.48,0,0,0,5.78-.63,20.35,20.35,0,0,1,5.93-.27l-.42-.28c1.1-.06,1.54.05,2.65,0l-.45-.11a42,42,0,0,1,7.5-.68c.22.22-1.32.22-2.2.36,1.33.12,3.53-.57,5.74-.76,1.76.06,0,.34-.22.46,3.31-.49,5.73-.71,7.91-.94a21.29,21.29,0,0,0,6.34-1.52c.42-.27-1.77-.1.62-.57a105.28,105.28,0,0,0-11.82,2l1.11-.14c-3,1.45-2.42.08-7.48,1,1.31-.55,3.52-.74,4.38-1.05-5.94-.32-8.35,1.39-12.31.6l.43-.06a26.24,26.24,0,0,0-3.75.42c.44.11,1.76.1,2.66.15a6,6,0,0,0-2.44.91c-1.54-.38-2,.35-4.41.25-.88-.39,2-.52,2.87-.8l-2.87.46c-2.65.18-2.64-.3-4-.5-2.24.41,1.31.19-.48.72a71.84,71.84,0,0,0-9.28,0c-4.11.21-8.59.31-11.48.58,2-.09.7-.48,3.11-.43-.87-.09-4,.17-4,.5-2,.17-4.28.22-6.51.18s-4.44-.22-6.3-.39l1.08.35c-3.15.5-7.92-.44-13.48-.29h.12c-1.79,0-3.34.78-6.61.5C127,313,128.79,313.1,128.62,312.69Z"/><path class="cls-1" d="M109.07,312.5l1.84-.36c-2-.19-4.5.15-4.1.5,1.35,0,3.09.37,3.34.1C109.94,312.66,110,312.49,109.07,312.5Z"/><path class="cls-1" d="M72.12,307.29c-.74-.08-.58.14-.93.19,7.77,2,17.46,3.2,20.55,3.9,2.62.46,3.2-.18,6.53.06l1.46.6c1.82-.14,7.28.85,5.39-.09a16.26,16.26,0,0,1-3.12,0l.28-.25-3.56-.21,1.17-.24c-4.77-.95-3.49.62-9.39-.38l.13-.66c-2-.23-3.46-.49-4.89-.69a34.34,34.34,0,0,1-4.47-1s-.1.35.6.32c.64.13,1.44.54,1,.66a13.64,13.64,0,0,1-2.46-.28c-.26-.07-.07-.1.18-.16.49-.1,1.21-.26-.82-.81-1.28-.14-2.85-.35-4.53-.59s-3.43-.7-5.12-1.08-3.28-1-4.62-1.4a21,21,0,0,1-3-1.41c1.06.63.71.72-.26.5a10.31,10.31,0,0,1-1.8-.61,13.7,13.7,0,0,1-2.08-1c-1.08-.94,1,.19,1.57.16a14.52,14.52,0,0,1-1.65-1.07c-.53-.35-1-.69-1.65-1.11.63.71.66,1,.13.86a6,6,0,0,1-1.18-.55,7.1,7.1,0,0,1-.87-.66,2.9,2.9,0,0,1-.51-.48,4,4,0,0,1-.64-.89,3,3,0,0,0,.21.4l.15.23.29.4a6.64,6.64,0,0,0,.56.63c.19.18.37.39.56.55l.56.44A15.36,15.36,0,0,0,58.12,303a17.71,17.71,0,0,0,2.28,1c.38.16.76.32,1.14.45l1.14.36,2.28.69,2.33.56,2.37.62C70.51,306.87,71.29,307.06,72.12,307.29Z"/><path class="cls-1" d="M70,307.33a4.07,4.07,0,0,0,1.2.15c-.91-.23-1.83-.43-2.68-.72A11.81,11.81,0,0,0,70,307.33Z"/></g><g id="BellowTopping"><path class="cls-2" d="M285.51,127.87s21.37,9.26,19.33,19.68-21.33,20.83-34.58,18.52c-9.16,9.26-25.44,18.52-48.84,10.42-16.28,15-33,16.63-54.15,3.1-17.07,16.57-40.47,15.41-55.76-.79-16.25,16.2-53.9,10.42-58-6.94-15.26,11.57-39.68,4.63-51.88-25.47,0,0,1-5.79,11.19-9.26,1.16-.71,68.81-14.39,138.71-16.59C217.27,118.48,285.51,127.87,285.51,127.87Z"/><path class="cls-2" d="M285.51,127.87V128h-.45l-.46-.1-.91-.19-.63.33h2.45Z"/><path class="cls-2" d="M277,125.5l-3.17-.2c1.67,1.39-.73.77,4.09,2.19,1.75,0,5.61.09,5.17-.44a37.07,37.07,0,0,1-4.94-.24c.82-.26,2.79,0,3.78-.3-2.93-.73-1.92,0-5.16-.49Z"/><path class="cls-2" d="M273.08,126.24c.31-.17.64-.34.61-.51C273.37,125.9,271.8,126,273.08,126.24Z"/><path class="cls-2" d="M271.15,126.15c-2-.26.08-.43-.11-.51l-2.35.51Z"/><path class="cls-2" d="M262.87,125.22h-.95A1.41,1.41,0,0,0,262.87,125.22Z"/><path class="cls-2" d="M258.77,124.9a8.82,8.82,0,0,0,3.15.29l-.12-.06c-1.12-.34,0-.77,1.84-.43,1.95.07,1.72.59,3.43.41l-2.25-.68A24.09,24.09,0,0,0,258.77,124.9Z"/><path class="cls-2" d="M262.87,125.22a5.1,5.1,0,0,1,1.08.08A2.33,2.33,0,0,0,262.87,125.22Z"/><polygon class="cls-2" points="267.02 125.72 268.07 125.71 267.84 125.45 267.02 125.72"/><path class="cls-2" d="M252,124.3c.53-.7,4.85.54,5.44,0-2.69-.22-4.79-1-4.17-1.33h-3C249.24,123.14,250.45,123.81,252,124.3Z"/><path class="cls-2" d="M246.31,121.91a3.26,3.26,0,0,1-.7.07A2.35,2.35,0,0,0,246.31,121.91Z"/><path class="cls-2" d="M231.15,122c2.34-.11,4.67-.16,7-.23a3.17,3.17,0,0,1-2,.4c3.07.34,3.51-.1,6,.17.71.75-4.5-.3-3.08.43a19.79,19.79,0,0,0,6-.16l2.8.72-.9-.84c-1.13-.32-2.37.39-3-.2-.33-.35.83-.31,1.65-.32-1.85,0-5-1-8.71-1.2C232.92,120.55,233.76,121.82,231.15,122Z"/><polygon class="cls-2" points="230.93 121.16 230.5 120.83 230.79 121.25 230.93 121.16"/><path class="cls-2" d="M223.27,121.63l3.66-.23a2.55,2.55,0,0,1,.84.42c-.14-.18.86-.41.72-.57-1.62-.79-4.45-.09-6.4-.08-5.13-.6.26-.36-1.71-1.12,1.44.1,1.48.26,3.48.43-3.1-1-7.11-.47-9.13-.39a5.73,5.73,0,0,0,1.83.32l-2.1.11C216.6,121.19,218.44,121.43,223.27,121.63Z"/><path class="cls-2" d="M229.75,122.06a5,5,0,0,1-2-.22A2.78,2.78,0,0,0,229.75,122.06Z"/><path class="cls-2" d="M213.63,120.05a5.06,5.06,0,0,0,1.1,0A4.05,4.05,0,0,0,213.63,120.05Z"/><path class="cls-2" d="M215.65,121l-2.54-.22,1,.38C214.44,121.13,215.7,121.15,215.65,121Z"/><path class="cls-2" d="M118.28,120.79c.26.26,1.2.33,3.16.12-.21.39-2.76.51-3.93.82,2.61,0,0,.44.67.75,2.89-.19,4.14-.77,7.25-.91-.15.12-.09.28.32.38a107.59,107.59,0,0,1,13.65-1.06c3.52,0,6.11-.29,10-.62,12.69-.22,25.91-.67,39.55,0l2-.67c.65.38,3.24.1,2.84.56a16.59,16.59,0,0,0-2.34-.08c2.89.74,7.73.15,11.22.55-.39-.14-.94-.8.12-.87-.31.8,4.14.17,5.12,1.15,3.49.38.17-.7,3.8-.41.41-.46-3.48-.39-4.12-.78,1.16-.33,3.29.31,3.15-.2-2.92-.24-7.11-.26-11.68-.17l-14,.32.95-.43c-2.29.12-5.29.16-8.17.07a50.76,50.76,0,0,1-7.48-.61c.86.43-6.77-.21-6.08.75a18.51,18.51,0,0,0-3.16-.21l-.44.32c-2.35,0-2-.44-4.67-.35,1.77.38-.19.54-1,.9-3.09-.43-6.69-.66-9.46-.93a3.42,3.42,0,0,0,1.43.41c-1.87-.07-1.53.32-2,.48-1.79.09-1.63-.45-1.56-.73-3.31,0-4.73,1-7.22.86l.9.38c-3.39.31-6.26,0-10,.37-1.84-.47,3.05-.69,4.58-1a24.33,24.33,0,0,1-2.9-.18c-1.59.39-4.25,1-6.21,1.42C124.32,120.33,119.57,120.73,118.28,120.79Z"/><path class="cls-2" d="M128.69,119.74c.45-.12.83-.22,1.06-.3a7.46,7.46,0,0,1-1.25.13C128.45,119.64,128.51,119.7,128.69,119.74Z"/><path class="cls-2" d="M118.28,120.79s-.07,0-.08-.06C117.83,120.79,118,120.8,118.28,120.79Z"/><path class="cls-2" d="M142.6,118.84c.74.12,1.74.23,2.88.34C145.16,119,144.89,118.86,142.6,118.84Z"/><path class="cls-2" d="M165.51,118.69c.7-.07.29-.2.79-.34C164.87,118.33,164.39,118.47,165.51,118.69Z"/><polygon class="cls-2" points="124.57 119.89 121.73 120.24 120.69 120.44 124.57 119.89"/><path class="cls-2" d="M67.35,128.06c2.56.18,6.17-.61,9.25-.91,5.6-1,.57-1.2,5.92-1.89l-.79,1.15c5.33-.73,13-1.31,17.41-2.7.42.08,1.38.14,0,.44,3.57-.41,1.71-1.68,6.53-1.78-4.42,1.07,1.52.49.35,1.25l-.69.14c3-.34,7-1.08,9-1.18.07-.27-1.71-.55,1-.79-1.09,0-.68-.31-.61-.59-2.76.5-4.28.49-5.93,1-1.58-.21,1-.21-.55-.42l-2.2.54c-1.64.06,1.66-.52-.9-.35a15.17,15.17,0,0,1-4.33.78l.56-.17c-1.52.27-3.69.34-2.89.85L96.59,123l.35.36c-4.19.3-5.88-.53-11.23.6,1.32,0,.16.32-.53.48,2.29,0,2.74-.64,4.87-.91.36.36-3.21,1.22-.6,1.18-2.88-.16-5.35.69-6.68-.16-3.42.35-4.66,1-8.16,1.19l.09-.16c-.56.74-2.87.07-5.35,1.08l1.85-.1c0,.28-.93.41-2.17.62.12-.12.12-.12-.3-.2-.31.51-4.2,1.12-4.67,1.34,1.65-.16,3.61-.82,5.51-1.19C68.63,127.57,69,127.93,67.35,128.06Z"/><path class="cls-2" d="M102.43,122.24l-1.09.33A3.44,3.44,0,0,0,102.43,122.24Z"/><path class="cls-2" d="M51.79,129.45c-2.19.23.52-.49-1.54-.39-2.16.66,2.63.28.55,1.1-1.38-.08-3.47.73-4.35.89.93-.44.27-1-.14-1a36.69,36.69,0,0,1-4.18.51c3.58-.17-2.91.71.33.63-.17.41-3.44,1.2-4.82,1.15.06-.28,1.15-.42,2-.57.64-.62-2.27.1-2.85-.27-3.23,1.24-13.9,3.14-10.66,3.71a14.53,14.53,0,0,0,3.33-.71c-3.5.41-.14-.59.12-.84,1.51-.1,4-.89,3.48-.38l-2.27.83c7.54-1.13,17.83-2.86,26.49-4.3l-3.76.54c.4-.37,2.17-.67,3.52-1l-1.94-.47c1.09-.11,2.11-.37,2.06-.09,1.27-.5.64-.61-.19-.75,2.79-.53,3.29-.3,5.39-1.1-4.76.06-3.88,1-9.3,1.32Z"/><polygon class="cls-2" points="61.95 127.55 60.88 128.09 62.58 127.66 61.95 127.55"/><path class="cls-2" d="M60.4,129.45c-.08-.16.6-.33.52-.49C58.73,129.16,59,129.36,60.4,129.45Z"/><path class="cls-2" d="M34,131.93l-2.77.61,1.84-.17C33,132.21,33.61,132,34,131.93Z"/><path class="cls-2" d="M14.79,137.59c3.8-.92,5.39-1.57,9.83-2,2.05-.9-1.17-.72-.33-1.34-2.2.31-1.77,1.08-4,1.67-.91-.24-3.27.73-5.4,1.13C15.2,137.13,15.24,137.32,14.79,137.59Z"/><path class="cls-2" d="M2.57,143.05a8.86,8.86,0,0,0-.75,1.22,9.59,9.59,0,0,0-.53,1.38,4.94,4.94,0,0,0-.18.76l.29.69a6.54,6.54,0,0,1,.41,1.12c-.16,0-.37-.3-.59-.68a6.85,6.85,0,0,1-.4-.87,2,2,0,0,1-.08-.26l.06-.27a4.72,4.72,0,0,1,.18-.53,1.59,1.59,0,0,0-.47.86A6.17,6.17,0,0,0,1,147.63a9.12,9.12,0,0,1,.91,2.3c0-.18-.21-.88.13-.42A16.38,16.38,0,0,0,3.93,153c.49.72,1,1.63,2.52,4.43.64.69,1.13,1.45,1.38,1.09,1.65,3.23.52,1.79,2.9,5.48,0-.27-.41-1.73,0-2a20.47,20.47,0,0,0,3.67,4.57,34.8,34.8,0,0,1,3,3,10.46,10.46,0,0,1-1.58-1.25c0,.43.61,1,1.45,1.54s1.95,1.19,2.82,1.84l-.52.37c1.73,1.13,4.94,2.5,7.16,3.82l-.66.07a43,43,0,0,0,8,1.85,24.4,24.4,0,0,0,7.58-.17c.81,0,1.62,0,2.44-.08,2.93-1,1.42-.65-.27-.34l-1.26.17a4.92,4.92,0,0,1-.94,0c-.42-.05-.36-.21.68-.59.42.48,1.19.25,2.24-.2a34.63,34.63,0,0,1,4-1.64c.83-.12.06.28-.7.68s-1.53.71-.58.65a2.59,2.59,0,0,1,1.22-.84,10.68,10.68,0,0,0,2-1c0,.16.19.14.49,0s.77-.41.94-.5c.49-.26.81-.48.55.07l.34-.39.2-.21c.07-.07.07,0,.12.07.14.17.26.42.47.69s.21.29.34.47a8.27,8.27,0,0,0,.46.69c.35.43.68.87,1,1.27a8.59,8.59,0,0,0,2.7,3.44c-.65-.58-.85-.91-.88-1.07s.12-.14.26-.15c.3,0,.53-.1-.56-1.59a13,13,0,0,1-1.29-1.76,9.12,9.12,0,0,1-.6-1c-.17-.36-.43-.93-.62-1.43l-.51-1.55-.07-.2v-.08l-.09.07-.35.26-.7.51a16,16,0,0,1-1.44,1,11.38,11.38,0,0,1-1.26.76,22.8,22.8,0,0,1-10.82,2.9,4.14,4.14,0,0,1-2.64.34,9.66,9.66,0,0,0-2.94,0c-.13-.27-.6-.56-.72-.82-2.18-.36-1.95-.28-1.32,0s1.72.59,1.15.63c-2-.27-3.37-1.21-3.11-1.41-1.5-.49-1.59-.52-1.53-.37s.3.39-.54.28a21.52,21.52,0,0,1-1.61-1.56,39.05,39.05,0,0,1-13.39-9.91,49.08,49.08,0,0,1-5.41-7.24,55.86,55.86,0,0,1-4-7.91c0,.34-.07.67-.1,1-.26-.59-.48-1.18-.73-1.73s-.53-1.07-.74-1.63a9.27,9.27,0,0,1,1.28-3.12,9.27,9.27,0,0,1,5.12-4l1.2-1.14c-.65.63,1.12.27.09,1.2a10.77,10.77,0,0,1,1.82-.93c.64-.26,1.31-.48,1.94-.79l-.08-.31.11.18.06.08H13s0,.09-.17-.24l.07.28c-.77.22-1.56.39-2.32.66a7.14,7.14,0,0,1,2.18-1.07h0a4,4,0,0,1,2-.09c1.44-.53,1.38-.7.71-.72a15.23,15.23,0,0,0-3.08.29l.13-.06a5.34,5.34,0,0,1-1.2.16,27.86,27.86,0,0,1-5.08,2.5,11.22,11.22,0,0,0-2.1,1.07,8.2,8.2,0,0,0-2.38,2.49,4.22,4.22,0,0,0-.63,1.36c0,.16.12,0,.29-.15C1.9,143.55,2.51,142.87,2.57,143.05Z"/><path class="cls-2" d="M8.61,139.75a5,5,0,0,0,.62-.49A7,7,0,0,0,8.61,139.75Z"/><path class="cls-2" d="M58.09,180a10.33,10.33,0,0,0,1.19,1C59.78,181.17,59,180.78,58.09,180Z"/><polygon class="cls-2" points="17.19 135.25 15.75 135.54 16.05 135.71 17.19 135.25"/><path class="cls-2" d="M71.57,187.64l.08-.25C71.51,187.44,71.42,187.51,71.57,187.64Z"/><path class="cls-2" d="M111.27,180.61l-.35.31A1,1,0,0,0,111.27,180.61Z"/><path class="cls-2" d="M201.94,188.44c.33-.1.68-.18,1-.31l1-.41c.71-.28,1.44-.56,2.12-.87a20.36,20.36,0,0,0,3.37-2l-.05.33c.6-.4,1.89-1.26,2.64-1.89s.94-1.09-.43-.49l-.52.55a5.72,5.72,0,0,1-2.52,1.26,6.35,6.35,0,0,0-2.28.42l-1,.51-.92.45c-.59.31-1.13.62-1.67.92a10.45,10.45,0,0,1-3.62,1.12c-1.23.18-1.07-.11-.74-.35a23.61,23.61,0,0,0-3.21.62,12.3,12.3,0,0,1-2.63.47c-.18-.52-.81-.79-1.71-.92-.45-.08-1-.09-1.54-.15l-1.84-.19c-2.6-.2-5.65-.84-7.39-2.19a38,38,0,0,1-4.21-1.67c-1.51-.68-3.06-1.48-4.66-2.1,1.81.49-2.74-1.69-1.8-1.8a.62.62,0,0,1-.33,0c-.19-.05-.37-.11-.56-.18s-.42-.19-.65-.31l-.36-.19-.19-.1c-.07,0-.13-.1-.19,0-.45.42-1,.89-1.53,1.34l-1.36,1.13-.69.57-.71.49c-.46.33-.88.64-1.23.94-.7.6-1.14,1.14-1.06,1.53a11.06,11.06,0,0,0-2.24,1.16,2.55,2.55,0,0,1-.47.31l-.78.42c-.36.17-.85.35-1.47.6-.06-.16.74-.53,1-.71a8.37,8.37,0,0,0-2.33,1.22,5.1,5.1,0,0,1-1,.55,3.48,3.48,0,0,1-1.24.17c-2,.65-2.16.81-2.08,1s.14.14.08.27-.27.31-.87.55c-4.42.9-3.25.32-5.74.08-.31.83-3,.62-5.17.94.53.11,3.61.1,1.6.44-5.25-.28-4.26.36-9.22-.42-1.11-.75.07-.33,1.05-.14s1.74.36-.33-.32c1.58.08,2.92.31,4.11.32a12.58,12.58,0,0,0,3-.3,45.74,45.74,0,0,1-13.29-2.59c-2.27-1,1.33.14-.46-.66-1-.53-1.81-1-2.64-1.38-.41-.19-.83-.33-1.2-.52l-1.1-.55c-.72-.36-1.43-.7-2.12-1.1a13.75,13.75,0,0,1-2-1.58l.83.15a11.16,11.16,0,0,1-1.85-1.22c-.35-.29-.69-.64-1.06-1s-.78-.8-1.2-1.21l-.67-.69-.17-.17a.38.38,0,0,0-.09-.08l-.09.08-.36.31-1.45,1.27c-.9.7-1.77,1.41-2.61,2,.55-.12.92-.2.54.21-.13-.22-.48-.1-1,.23s-1.22.78-2,1.34a16.35,16.35,0,0,1-6,2.49c.25.26-.56.76-1.76,1.27a21.5,21.5,0,0,1-4.09,1.18c-.92,0-.77-.32-.78-.49a8.17,8.17,0,0,0,3.87-1,20.63,20.63,0,0,1,3-1.61,23,23,0,0,1-4.67,1.4l-2.48.48a14.75,14.75,0,0,0-2.07.47l.87-.61c-3.69.27-3.21,1.47-7.16,1l.4-.36a46.17,46.17,0,0,1-12-2A61.49,61.49,0,0,1,61.26,182c-.31,0,.08.56.6,1.18a10.59,10.59,0,0,1,1.2,1.39,23.33,23.33,0,0,0,4.68,1.54c1.38.31,2.67.51,4.1.76l-.19.55a13,13,0,0,1,2.16,0c.73,0,1.13-.06.22-.4,2.36.17,1.66.87,4.4.92-.3.6-1.92.4-2,.89.81,0,1.61.06,2.42,0-.78.14,1.41.36.66.51a26.22,26.22,0,0,1,2.94-.05c.86,0,1.64.07,2.43.14a20.53,20.53,0,0,0,5.48-.19c-.85.08-1.71.08-2.57.12,0-.36,1.46-.37,2.55-.62,1.3.32,2,.17,4.42-.08a18.4,18.4,0,0,0,2.51-1.15c.4-.21.82-.41,1.3-.61a17,17,0,0,1,1.67-.66c-.08.19.15.22.56.16a10.73,10.73,0,0,0,1.6-.5,12,12,0,0,1,2.88-.9c.11-.45,1.29-1.1,2.37-1.87a7.22,7.22,0,0,0,2.16-1.8c.64-.55,1-.94,1.38-1.22l.24-.16c.07,0,.13-.1.17,0a.6.6,0,0,1,.11.39.53.53,0,0,0-.17-.08l-.24.3c.09-.06.19-.2.27-.19l.24.25c-.06,0-.06.12-.11.09.18.18.32.16.49.23a1.48,1.48,0,0,1,.44.34,4.81,4.81,0,0,1,.65.78c-.06.06-.26-.08-.51-.28l-.42-.36-.22-.19a.36.36,0,0,0-.12-.08l.36.36.46.42a10,10,0,0,0,1,.77c.66.44,1.32.83,1.94,1.22s1.2.8,1.82,1.16a10,10,0,0,1,1.71,1.32c.59.17,4.19,2,3.72,1,.85.68.2,1.1,3,2.09,1.73.17,3,1.28,5.28,1.56-3-.25,0,.16-2.72,0a10.35,10.35,0,0,0,1.64.5l1,.19,1.06.09c.72.06,1.49.12,2.29.21s1.65.08,2.52.19c.35.16.32.33.68.49l1-.1c.35-.07.7-.14,1.05-.19a4.36,4.36,0,0,1,2,.1l-.18-.4h.93l1-.09,2.12-.21a21.63,21.63,0,0,0,2.14-.32c.7-.11,1.39-.2,2.05-.24.9-.5,1.75-1.13,2.6-1.68,4-.58,8.54-3.92,10.44-6.45,1.23-.76,2.85-2.17,3-2-.21.26-.56.73-1,1.25a12.67,12.67,0,0,1,1.29-1,9.72,9.72,0,0,0,1-.79l.21-.17a.84.84,0,0,1,.23.12l.44.21c.15.06.28.1.45.15a3.41,3.41,0,0,0,.54.1c2,.93,1.11,1.24,2.51,2.09a24.6,24.6,0,0,1,3.62,1.54c1.34.57,2.68,1.33,4,1.87a26.24,26.24,0,0,0,3.64,1.29,3.67,3.67,0,0,0,2.27,0,63,63,0,0,1-8.06-3c.89.21.36-.32,1.52.16,1.58.61,2.76,1.1,3.94,1.64a22,22,0,0,0,4.12,1.12l-.58.78a18.13,18.13,0,0,0,8.46.76c.66-.09,1.32-.12,2-.23s1.27-.22,1.89-.29A27.62,27.62,0,0,1,201.94,188.44Z"/><path class="cls-2" d="M161.91,184.75l2.31-1.15-.44-.14A9.29,9.29,0,0,1,161.91,184.75Z"/><path class="cls-2" d="M163.78,183.46a6.22,6.22,0,0,0,1-1.05c-.41.37-.82.7-1.15,1Z"/><path class="cls-2" d="M211.18,184.59a10.34,10.34,0,0,0,2.33-1.39c-.42.21-.84.44-1.24.69A6,6,0,0,0,211.18,184.59Z"/><polygon class="cls-2" points="213.54 182.87 212.43 183.43 212.33 183.62 213.54 182.87"/><path class="cls-2" d="M279.82,165.27c1.26-.41,2.48-.92,3.67-1.44a11.09,11.09,0,0,0,2.53-.72c1-.35,1.66-.6,1.08-.12,1-.72,2.64-1.47,3.78-2.14s1.78-1.11.75-1a37.6,37.6,0,0,1-8.37,3.67,31.78,31.78,0,0,1-9.88,1.39,22.63,22.63,0,0,1-3.07-.3l-.51-.07c-.16,0-.28.24-.43.35l-.82.8-1,1-2,1.76-2,1.55a51.37,51.37,0,0,1-8.73,5.36c.6-.4,1.21-.76,1.79-1.18a18.9,18.9,0,0,1-4,1.86c-.61.2-1.19.38-1.75.54l-1.64.34-1.57.34c-.53.08-1.06.19-1.6.32s-1.1.32-1.69.48a18.14,18.14,0,0,0-1.9.59l.66-.8c-3.06.16-6,1.29-9.24.25.09.12.19.23.28.33-.87-.09-1.19-.3-2.06-.42l.32.18a13.79,13.79,0,0,1-3-.27c-.92-.21-1.81-.47-2.9-.82-.1-.27,1.06.13,1.77.23a6.48,6.48,0,0,0-2-.41,16.85,16.85,0,0,1-2.54-.53c-1.28-.61.12-.32.33-.36l-.94-.24-1.27-.36-.63-.18c-.18.06-.33.26-.49.38l-.93.81-2.17,1.82a25.6,25.6,0,0,0-2,1.61c-.31.29-.61.6-.91.93s-.65.65-.95,1,1.38-.46-.22.7a18.37,18.37,0,0,0,4.07-2.87,17.54,17.54,0,0,0,1.69-1.65l.81-.87,1-1-.82.72c.81-2,2-.93,2.67-.71a8.92,8.92,0,0,0,3.43,1.14c-1.17.17-2.88-.42-3.64-.39a15.8,15.8,0,0,0,2.94,1.17c.81.18,1.64.32,2.46.42a14,14,0,0,1,4.32,1.07h-.36a6.54,6.54,0,0,0,1.39.18h1.7c-.35-.17-1.42-.26-2.11-.5a3.59,3.59,0,0,0,2.07-.58,2.4,2.4,0,0,0,1.49.19,11.13,11.13,0,0,1,2,0c.35.21,0,.32-.64.4s-1.34.05-1.71.16l1.17-.07a9.39,9.39,0,0,0,1.17-.16c2.13-.08,2.12.5,3.21.62,1.8-.51-1.08-.14.35-.74a14.44,14.44,0,0,0,2.94,0,28.63,28.63,0,0,0,4.5-.88,30.65,30.65,0,0,0,8.51-3.68c-1.41.76-.27.73-2.1,1.45.72-.13,2.84-1.55,2.7-1.83,2.7-1.77,6.12-3.93,8.58-5.72l-.88.32a9.74,9.74,0,0,1,1.48-1.53c.28-.27.59-.54.91-.82l.68-.59.34-.3.09-.07h.33a21.09,21.09,0,0,0,3.14.48,13.61,13.61,0,0,0,3.19-.14h-.09c1.42-.22,2.49-1.15,5-1.58C281,164.66,279.61,164.9,279.82,165.27Z"/><path class="cls-2" d="M293.85,158.79c-.31.4-.64.76-1,1.15,1.44-.71,2.69-2.36,2.23-2.41-.79.7-2.06,1.25-2.08,1.57C293.21,159.06,293.29,159.23,293.85,158.79Z"/><path class="cls-2" d="M297.8,137c-.51-.27-.5,0-.77-.09,2.36,1.88,4.81,4.33,5.72,6.77a5.7,5.7,0,0,1,.4,3.21,6,6,0,0,1-.82,2.16c-.21.41-.36.74-.49,1.06l-.29.93a7.24,7.24,0,0,1-1.19,2.39l-1.13.53a11.62,11.62,0,0,1-2.23,2.2c-.8.67-1.33,1.13-.48,1a19.83,19.83,0,0,1,1.7-1.73v.33a23.78,23.78,0,0,0,1.89-2l-.36.88a4.63,4.63,0,0,0,1.89-2.73A18.44,18.44,0,0,1,303,148.4l.62.24a6.61,6.61,0,0,0,.34-3.52,16.26,16.26,0,0,0-1-3.27s-.3.14.07.53c.19.46.2,1.13-.12.91-1.19-1.8-1.13-1.66-.75-1.49s.91.48.13-1a34.68,34.68,0,0,0-5.75-5c-2.2-1.6-4.32-2.93-5.16-3.74,1.43,1.35-1.2.21-3.2-.87-.81-.7.83,0,1.25,0a13.77,13.77,0,0,0-2.6-1.51c1.08,1,0,.93-2.24.16,2.29,1.26,4.54,2.24,6.73,3.26A27.24,27.24,0,0,1,297.8,137Z"/><path class="cls-2" d="M296.22,136.48a2.58,2.58,0,0,0,.81.45c-.56-.45-1.14-.89-1.69-1.28C295.64,135.92,295.93,136.2,296.22,136.48Z"/></g><g id="Topping"><path class="cls-3" d="M142,11.5a4.74,4.74,0,0,1,1-6,16.57,16.57,0,0,1,12-5c5,0,20,4,20,15v5s55,17,74,33,36,46,34,73c0,0,21,8,19,17s-21,18-34,16c-9,8-25,16-48,9-16,13-32.45,14.37-53.22,2.68C150,185.5,127,184.5,112,170.5c-16,14-53,9-57-6-15,10-39,4-51-22,0,0,1-5,11-8,0,0,8-46,31-71s56-38,69-40S147.51,19,150.51,17s4-6,1-7S144.51,13,142,11.5Z"/><path class="cls-3" d="M142.09,11.34a2.87,2.87,0,0,0,2.08.36c.2-.2.38-.36.56-.57A3.33,3.33,0,0,1,142.09,11.34Z"/><path class="cls-3" d="M151.51,11.42a1.08,1.08,0,0,1,.58.69,2.32,2.32,0,0,1,0,1.28c.26-.2.52-.39.79-.57s.26-.11.35-.24a1.57,1.57,0,0,0,.13-1,2.42,2.42,0,0,0-.54-1.17A3.41,3.41,0,0,0,151,9.31a5.69,5.69,0,0,0-2.08.39,13.83,13.83,0,0,0-2,1c-1.16.7-2.08,1.21-1.71,1.33a20.23,20.23,0,0,0,2.47-1.22,5.45,5.45,0,0,1,3.07-.77,11.08,11.08,0,0,0-2,.64,7.51,7.51,0,0,0-2,1.19,17.14,17.14,0,0,0,2.7-1,3.83,3.83,0,0,1,.93-.28,2.19,2.19,0,0,1,1.54.45Z"/><path class="cls-3" d="M152.7,14.35c0-.4-.13-.78-.29-.78C152.58,13.92,151.84,15.63,152.7,14.35Z"/><path class="cls-3" d="M151.42,16.27c-.94.78-1,.63-.86.39s.48-.68.37-.63a5.69,5.69,0,0,1-2,1.93A6.17,6.17,0,0,0,151.42,16.27Z"/><path class="cls-3" d="M141.9,19.27l-1.11.28A2,2,0,0,0,141.9,19.27Z"/><path class="cls-3" d="M137,20.22a12.06,12.06,0,0,0,3.77-.67h-.16c-1.41,0-.21-.73,2-1,2.26-.58,2.18,0,4.06-.81-.93.08-1.85.13-2.79.17A44.14,44.14,0,0,0,137,20.22Z"/><path class="cls-3" d="M141.9,19.27c.41-.1.82-.19,1.29-.28A3.4,3.4,0,0,0,141.9,19.27Z"/><path class="cls-3" d="M146.87,18.28c.4-.12.79-.29,1.18-.43l-.35-.15C147.43,17.9,147.16,18.1,146.87,18.28Z"/><path class="cls-3" d="M128.85,21.54c.45-.82,5.87-.81,6.42-1.5-3.23.55-5.89.39-5.25-.12l-3.54.76C125.34,21.14,126.93,21.47,128.85,21.54Z"/><path class="cls-3" d="M121.57,20.71a5.44,5.44,0,0,1-.81.25A3.3,3.3,0,0,0,121.57,20.71Z"/><path class="cls-3" d="M103.85,25.9q3.93-1.74,8-3.07A4.58,4.58,0,0,1,109.61,24c1.85-.42,2.86-.76,3.82-1a18.59,18.59,0,0,1,3.37-.73c.52.28-.83.49-2.08.69s-2.4.45-1.45.59c2.15-.47,5.36-.9,7-1.76h3.49l-1.25-.68c-1.41,0-2.7,1-3.63.6-.49-.25.9-.52,1.86-.74a34.75,34.75,0,0,1-4.44.43c-1,.05-2,.14-3,.29a19.84,19.84,0,0,0-3.31.68,7.83,7.83,0,0,0-3.76,1.79A7.58,7.58,0,0,1,103.85,25.9Z"/><polygon class="cls-3" points="103.25 25.22 102.64 25.12 103.14 25.37 103.25 25.22"/><path class="cls-3" d="M95,29.46c1.29-.7,2.58-1.45,3.92-2.1a3.44,3.44,0,0,1,1.11,0c-.23-.1.79-.8.56-.87A8.93,8.93,0,0,0,97,27.71c-1.23.69-2.46,1.48-3.53,2-5.85,2.31.11-.47-2.39,0,1.61-.73,1.74-.6,4-1.5-3.89.73-8,3.51-10.08,4.8a8,8,0,0,0,2.12-.81L84.9,33.54a26.57,26.57,0,0,0,4-1.37C90.43,31.52,92.25,30.62,95,29.46Z"/><path class="cls-3" d="M102.29,26.59a7.81,7.81,0,0,1-2.28.74A4.13,4.13,0,0,0,102.29,26.59Z"/><path class="cls-3" d="M83.8,33.55A7.06,7.06,0,0,0,85,32.93,7.09,7.09,0,0,0,83.8,33.55Z"/><path class="cls-3" d="M86.43,33.15c-.94.45-1.88.87-2.8,1.33.4-.1.82-.18,1.23-.26S86.56,33.27,86.43,33.15Z"/><path class="cls-3" d="M15.85,123.18c.33-.21.76-1.27,1.33-3.6.29.38-.61,3.34-.72,4.81,1-3,.41.16.95-.53.91-3.38.84-5,2-8.61.05.21.23.2.49-.23C21,110.63,23,103.21,25,99.24l2.25-5.43c.34-.89.7-1.79,1.07-2.74s.83-1.92,1.3-3A121.67,121.67,0,0,1,41.82,67.93l3.88-4.64L50,58.93c1.48-1.4,3-2.76,4.53-4.15s3.18-2.61,4.79-3.91c.44-.7.93-1.34,1.4-2,.86-.2,3.14-2.39,3-1.73-.78.54-1.54,1.12-2.27,1.73a51.33,51.33,0,0,0,5.43-3.69c1-.72,2-1.49,3-2.16s2-1.29,2.91-1.82c-.48.15-1.41,0-.39-.79.09.44,1.12-.28,2.39-1s2.7-1.54,3.47-1.46c3.79-1.9-.23-.71,3.73-2.73.18-.64-3.87,1.81-4.71,2,1-1.07,3.59-1.83,3.17-2.17a90.81,90.81,0,0,0-12,7.68C63.92,46.07,59.3,50,55.28,53.64l.59-1.08c-4,3.89-10.54,10.14-13.8,13.29.25-.13,0,.19-.42.75l-.82,1-.9,1.25c-1.21,1.71-2.39,3.49-1.74,3.42a16,16,0,0,0-2.33,3.09V76a12.44,12.44,0,0,1-1.68,2,10.3,10.3,0,0,0-1.67,2.55c1.38-1.68.35.48.2,1.48L31,84.42c-.56.82-1.06,1.69-1.59,2.53-1,1.7-2.1,3.34-2.9,4.83a5.53,5.53,0,0,0,1.11-1.39c-1,2-.52,1.83-.63,2.44-.84,2-1.25,1.6-1.46,1.4a19.23,19.23,0,0,0-1.51,4.56,14.35,14.35,0,0,1-1.26,3.83c.25-.29.52-.56.78-.85-1.33,3.91-2.89,7-4.11,11.44-1.22,1.93.64-3.72,1-5.6-.42.84-1,2.71-1.41,3.24-.32,2-.86,5.21-1.25,7.62C17.77,116.06,16.27,121.66,15.85,123.18Z"/><path class="cls-3" d="M19.06,110.85c.08-.56.15-1,.17-1.32a9.47,9.47,0,0,1-.42,1.47C18.87,111.08,19,111,19.06,110.85Z"/><path class="cls-3" d="M15.85,123.18s-.06.08-.09.08C15.69,123.71,15.74,123.56,15.85,123.18Z"/><path class="cls-3" d="M25.27,98.7l-.25.54-.28.69Z"/><path class="cls-3" d="M24.74,94.81c.49-.76,1.12-1.83,1.81-3C26.22,92.05,26,92.29,24.74,94.81Z"/><path class="cls-3" d="M38.51,70.37c.45-.75,0-.42.3-1C37.74,70.83,37.51,71.39,38.51,70.37Z"/><path class="cls-3" d="M17.51,115.63c-.28,1.13-.58,2.25-.83,3.39l-.22,1.26Q16.92,117.94,17.51,115.63Z"/><path class="cls-3" d="M29.89,167.27c-1.4-.61-3-1.5-4.81-2.25a35.77,35.77,0,0,1-4.95-3c-.71-.47-1.27-.81-1.71-1.07a9.93,9.93,0,0,0-.94-.59c-.45-.25-.61-.21-.76-.17s-.28.08-.69-.16a8.52,8.52,0,0,1-.87-.61l-.65-.53c-.24-.22-.48-.49-.77-.78.51,0,1,.06,1.52.06-.58-.57-1.15-1.2-1.75-1.84a24.55,24.55,0,0,1-1.81-2c-1.11-1.5-2.39-2.95-3.37-4.58l-1.56-2.35c-.51-.77-.92-1.58-1.38-2.32S4.5,143.61,4,142.89l-.17-.28c-.06-.09,0-.19,0-.29a3.86,3.86,0,0,1,.16-.59c.13-.4.29-.76.43-1.09.42-.36,1.21-1.17.34.29a16.44,16.44,0,0,0,1.92-3.09c.42-.69,1-1.67,3.88-2.82a5.62,5.62,0,0,0-1.71,1.31c-.05.14.3,0,.76-.13.92-.32,2.3-.75,1.75-.15l-.74.43A41.23,41.23,0,0,1,15,134.6c.34-2.5.73-4.76,1.09-6.19-.24-.16-1.12,1.82-.43-1.37-.34,1.27-.52.69-.76.51-.22,1.57-.46,2.79-.64,3.87-.1.53-.19,1-.25,1.51v.8l-.17.13c-.58,0-.39-.09-.28-.15s.18-.12-.24-.17a2.73,2.73,0,0,1-.48.25c-.21.09-.42.22-.63.33-.42.23-.84.43-1.25.68-1.93.81,1.83-1.25-1.18.08-.25.36-2.57,1.69-4.51,3.54a7.26,7.26,0,0,1,.49-.61,12.57,12.57,0,0,0-2,2.42,5.12,5.12,0,0,0-.27.52,3.53,3.53,0,0,0-.15.46c0,.23.07.24.34,0a5.59,5.59,0,0,0-.8,1.38,2.72,2.72,0,0,0,.16.76c.08.26.17.56.22.75a4.13,4.13,0,0,0,.13-.61c.16.33.3.64.45.94l.34.8c.22.52.42,1,.61,1.49A24.32,24.32,0,0,0,6,149.43c.45.89.94,1.82,1.57,2.86a25.72,25.72,0,0,0,2.74,3.35c-.9-1.37.16-.31.77.3a13.41,13.41,0,0,0-1.95-2.43,10.83,10.83,0,0,1-2-2.27c.08-.29.77.49,1.34.91s.89.57.06-.78a37.27,37.27,0,0,0,2.69,4A7.08,7.08,0,0,1,13,158.26c3,3.1,4.58,3.73,8,6.38l-.19.06c.52-.07,1.25.42,2.25,1.08a10.56,10.56,0,0,0,1.72,1,14.27,14.27,0,0,0,2.22.69l-2-1.05c.21-.2,1.22.23,2.65.8-.2,0-.2,0,.21.35a11,11,0,0,1,2.91.44,14.67,14.67,0,0,0,2.94.48c-.49-.12-1-.21-1.56-.29s-1.09-.24-1.66-.36a18.86,18.86,0,0,1-3.45-.91C28.25,167.07,28,166.62,29.89,167.27Z"/><path class="cls-3" d="M6.81,136.65a14.81,14.81,0,0,0-1,1.1A10.44,10.44,0,0,0,6.81,136.65Z"/><path class="cls-3" d="M48.6,168.26c.67-.14.94-.25,1-.24s0,.1,0,.19-.32.4.92,0c1.24-.71.41-.54-.39-.41s-1.61.24-.47-.5a9.77,9.77,0,0,0,2.65-1.15c.8-.57,1.66-1.21,2.15-1.5-.58.5-.69.82-.65,1a.42.42,0,0,0,.31.36,3.15,3.15,0,0,1,.29-.22c.05,0,.12-.1.15-.08l.06.17c.06.23.14.5.22.78a3.13,3.13,0,0,0,.14.4,6.08,6.08,0,0,0,.31.69c.26.45.52.89.78,1.29-1.12-2-.52-1.25.09-.45a4.49,4.49,0,0,0,.8.83c.14.07,0-.14-.51-1a2.61,2.61,0,0,1,.72.51c.35.3.75.72,1.24,1.12l.71.64c.26.19.51.4.74.59.46.41.9.76,1.2,1.05-.13.07-.46-.09-.87-.35s-.86-.7-1.3-1c-.5-.11,0,.41.63,1s1.55,1.26,1.67,1.65c.51.2,1.13.48,1.82.81a21.69,21.69,0,0,0,2.33.94,42.69,42.69,0,0,0,5.17,1.56c3.29.71,5.64.78,4-.12a38.57,38.57,0,0,0-4-.9c4,1.33-.13.63-.55.68-1.69-.65-4.7-1.58-3.88-1.68.93.28,1.89.44,2.82.65a35.89,35.89,0,0,1-6.59-3.22,17.57,17.57,0,0,1-5.6-5.52l-.22-.45c-.1-.21-.21-.39-.3-.62-.19-.44-.34-.87-.5-1.29l-.24-.64-.06-.16v-.08h0l-.28.16-1.12.66c-.74.42-1.51.9-2.21,1.28l-1.91.82-.94.41-1,.3-2,.58c-.65.18-1.33.24-2,.37a19.27,19.27,0,0,1-2,.29,18.8,18.8,0,0,0,2.24-.29,13.82,13.82,0,0,0,2.22-.43,2.28,2.28,0,0,1-.6.36,7.4,7.4,0,0,1-1,.29c-.79.18-1.73.41-2.56.56.76.19,1.54.28,2.34.42-.67.08-1.33.2-1.8.26s-.78,0-.73-.13c-1.63.38-.88.55.15.77a27.89,27.89,0,0,1-3.77.11,17,17,0,0,0-3.19,0,26.26,26.26,0,0,0,3.42.46,12.75,12.75,0,0,0,2.23-.19c1.38-.17,2.83-.39,6.25-.91C47.61,169.25,48.12,168.76,48.6,168.26Z"/><path class="cls-3" d="M35.93,169.88l1.45-.26H35.2C35.44,169.73,35.69,169.79,35.93,169.88Z"/><path class="cls-3" d="M38.25,168.4c.06.17-.77.18-.71.35a14.2,14.2,0,0,0,1.45.13c.32,0,.47,0,.5-.09S39.05,168.63,38.25,168.4Z"/><path class="cls-3" d="M64.38,175.43c1.09.46,2.19.89,3.3,1.24-.69-.31-1.39-.62-2.06-1C65.6,175.86,64.79,175.6,64.38,175.43Z"/><path class="cls-3" d="M88.3,177.76c-2.35.13-4,.22-5.79.17a28,28,0,0,1-6.18-.84c-2.67,0,1,1.13-.14,1.37,2.67.52,2.44-.35,5.2-.26,1,.5,4,.14,6.65.11C87.71,178.14,87.71,178,88.3,177.76Z"/><path class="cls-3" d="M104.59,175.86a52.25,52.25,0,0,0,5.39-3.1c0,.18-.3.48-.71.83a11.2,11.2,0,0,1-1.62,1,3,3,0,0,0,1.74-.75c.33-.26.69-.54,1.11-.83l.63-.4a2.22,2.22,0,0,1,.41-.2c-.09,0-.55.23-.29-.15l.51-.39.22-.16.18.15.58.46c.48.36,1,.68,1.36,1s1,.59,1.72,1.13a37.57,37.57,0,0,0,3.44,2.34c1,.42,2,1,2,.49,3.76,2.26,1.68,1.49,6.56,3.65-.14-.26-1.6-1.38-1.39-1.83a23,23,0,0,0,4.08,1.5,15.78,15.78,0,0,0,2.71.51c.77.08,1.45.21,2.24.27,1,.08,1.9.21,2.84.38a14.22,14.22,0,0,1-2.44-.07c.27.37,1.28.41,2.53.39s2.75-.32,4.07-.29l-.22.62c.61-.07,1.33-.22,2.11-.34a18.61,18.61,0,0,0,2.48-.48,23.24,23.24,0,0,1,2.58-.55c.86-.15,1.66-.41,2.43-.51l-.58.49,2.26-.84,2.26-1a47.22,47.22,0,0,0,4.43-2.26c.73-.38,1.38-.88,2.06-1.3s1.34-.85,2-1.31L166,172.9l.57-.48.25-.22c.09,0,.19.06.28.08l.38.31.19.15.29.21,1.17.83c1.66.78,2.15.83,1.93.7s-1.07-.6-1.94-1.15l-1.29-.78c-.32-.22-.52-.38-.7-.53s-.39-.51.84-.11c.09.68,1,1,2.24,1.51a26.78,26.78,0,0,1,4.79,2c.83.55-.17.25-1.13-.1s-1.89-.72-1,0c1-.11,2.09.74,4.21,1.38-.66.41,4.37,1.53,2.88,1.68a37.26,37.26,0,0,0,3.92.53c1.29.19,2.62.14,3.91.2a7.57,7.57,0,0,0,2.39.47,15.68,15.68,0,0,0,2.74.06,3.61,3.61,0,0,1-1.66-.17c-.16-.09,0-.18.09-.29s.39-.46-1.88-.75a43.77,43.77,0,0,1-12.22-2.64c-1.09-.43-2.23-.81-3.31-1.31L170.73,173l-3.22-1.88-.45-.25-.23-.12c-.07,0-.15-.12-.21,0l-.81.6-1.39,1a2.44,2.44,0,0,1-.8,1,13,13,0,0,1-1.63,1.11c-.59.38-1.2.75-1.72,1.11a5.68,5.68,0,0,0-1.2.93c-.29-.12-.94,0-1.23-.12-.59.33-1,.57-1.3.75a3,3,0,0,0-.52.3c-.13.1.16,0,.57-.06.78-.28,2-.8,1.51-.37a10.5,10.5,0,0,1-1.5.75c-.49.17-.94.29-1.31.38-.75.16-1.21.16-1.15,0-.9.37-1.37.55-1.61.63s-.22.13-.14.16.57.11-.33.59h-2.65a39.52,39.52,0,0,1-20,.33,36,36,0,0,1-10.09-4.15l-1.18-.69-1.1-.78c-.73-.54-1.48-1-2.17-1.6l-2.11-1.87-.59-.52-.15-.13c0-.06-.09.05-.14.06l-.3.23-1.2.92a4.94,4.94,0,0,1,1.07-.21,52.77,52.77,0,0,1-7,4.55,17.12,17.12,0,0,1-7.56,2.11l-1.8.79c1-.44-1.2-.54.35-1.19a50.11,50.11,0,0,1-5.19.85,25.53,25.53,0,0,0,3.13-.13,10.69,10.69,0,0,1-3.18.57,6.55,6.55,0,0,1-2.15-.27c-2.33.31-1.65.51-.21.69.72.07,1.62.11,2.41.16a11.14,11.14,0,0,1,1.74.14,30.6,30.6,0,0,1,6.64-1.16A14.63,14.63,0,0,0,105,176.5C108.63,174.46,104.51,176.26,104.59,175.86Z"/><path class="cls-3" d="M96.36,177c-.38.12-.68.22-.91.32Z"/><path class="cls-3" d="M192.9,179.49c.5,0,1.08,0,1.86-.06C195.39,179.3,194.39,179.4,192.9,179.49Z"/><path class="cls-3" d="M84.89,179.59h1.79l-.32-.22C85.87,179.47,85.38,179.53,84.89,179.59Z"/><path class="cls-3" d="M211.21,175.54l-.11-.24C211,175.44,211,175.55,211.21,175.54Z"/><path class="cls-3" d="M258.7,167.21c-.34.17-.66.36-1,.5A4.07,4.07,0,0,0,258.7,167.21Z"/><path class="cls-3" d="M274.51,85.87c-.81-1.44-1.8-3.1-2.74-4.65A40.47,40.47,0,0,0,269,77.39l.35.06c-1-1.46-4.54-5.91-2.9-2.61l.68.61a7.19,7.19,0,0,1,1.76,3,9.65,9.65,0,0,0,1,2.65c2,3.31,3.93,4.85,5.13,8.12.67,1.36.32,1.26-.05.93a26.34,26.34,0,0,0,1.85,3.58,14.48,14.48,0,0,1,1.57,2.83c-.39.39-.35,1.21-.05,2.29s.86,2.43,1.35,3.94c1.12,3,2.15,6.6,1.92,9.22a94.41,94.41,0,0,1,1.14,11.63c-.36-1.74-.24,1.68-.49,3.42.23.14.27.23-.06.21,1.64,0,4,1.14,6.62,2.58s4.89,3,5.61,2.59a26.86,26.86,0,0,0,2.36,1.9,2.86,2.86,0,0,1,.55.42,16.09,16.09,0,0,1,2.05,2.16c-.12.08-.85-.68-1.18-1,.8,1,1.52,1.6,2.14,2.28a3.48,3.48,0,0,1,1.06,2.5,6.5,6.5,0,0,1,.21,2.15c0,.34,0,.4.13.39s.54-.28.25,1.3a9.43,9.43,0,0,1-1.52,2.58,5.57,5.57,0,0,1-1,1c-.55.42-.93.57-2.2,1.35.07.41-.55,1.11-1.47,1.87s-2.12,1.59-3.17,2.42c.6-.27,3.75-2.25,1.88-.67-2.71,1.7-3.83,2.3-4.86,3a23.32,23.32,0,0,1-4.86,2.45c-1.56.11-.14-.36,1-.76s2-.71-.54-.08c3.41-1.61,5.95-2.94,7.36-4.44a53.82,53.82,0,0,1-15.28,6c-3,.33,1.47-.57-.89-.31-2.68.2-4.71.41-6.65.47h-1.48c-.11,0-.25-.06-.34,0l-.27.27-.53.51a14.06,14.06,0,0,1-2.4,1.87l.47-.86a20.56,20.56,0,0,1-5.19,3.68c-2.37,1.26-5.1,2.43-7.42,3.39.67,0,1.11-.06.54.3-.07-.25-.5-.17-1.19,0s-1.66.58-2.79,1A21.82,21.82,0,0,1,241.4,171c.23.28-.86.68-2.41.91-.78.1-1.68.18-2.57.24a21.86,21.86,0,0,1-2.56,0c-1.09-.23-.83-.48-.8-.65a18.18,18.18,0,0,0,2.94.21,10.69,10.69,0,0,0,1.88-.31l1.63-.37a16.51,16.51,0,0,1,2.29-.53,19.65,19.65,0,0,1-2.76.35l-3.14.07c-1.06-.06-2.1-.11-3.06-.12s-1.83-.11-2.56-.07l1.17-.35a21.3,21.3,0,0,0-4.3-.16,9.22,9.22,0,0,1-1.74-.07c-.35-.05-.73-.12-1.17-.22a12.31,12.31,0,0,1-1.48-.5l.54-.23-1.75-.47-.94-.26c-.33-.05-.7-.33-1,0l-1.58,1.18c-.5.37-1,.76-1.52,1.11-1.06.67-2.1,1.39-3.19,2s-2.16,1.26-3.29,1.77a56.37,56.37,0,0,1-12.7,4.34c-.32.17.51.39,1.46.47a15.48,15.48,0,0,1,2.16.19l.83-.22.78-.28,1.43-.54a19.87,19.87,0,0,0,2.47-1.16c1.55-.75,2.83-1.66,4.37-2.53l.22.54c.54-.74,4.06-3.06,1.88-2.16a9.29,9.29,0,0,1,2.22-1.28,6.82,6.82,0,0,0,2.41-1.58c.16.68-1.44,1.84-1.19,2.27l1.12-.94,1.07-1c-.59.75,1.5-.89.94-.17l.34-.34.13-.17c.1-.11.2-.28.35-.21l.44.07.78.19c1,.24,1.9.57,2.82.82a27.83,27.83,0,0,0,6.51,1.23c-1-.17-2-.32-3.07-.52.08-.29,1.83-.06,3.16,0a6.42,6.42,0,0,0,2.09.6c.77.1,1.71.23,3.15.37,1.24-.15,2.2-.38,3.26-.58a26.39,26.39,0,0,1,3.84-.68c-.31.37,1.07.25,2.62.08s3.23-.59,3.6-.39c.27-.42,1.81-.9,3.3-1.44a10,10,0,0,0,3.06-1.41c1.6-.8,3.76-1.9,3.91-1.6-.22.14-.66.44-1.14.72l1.59-.81c-.11.15,0,.16-.21.27,1.41-.76,1.17-1.18,3.09-2,.09.16-.87.75-1.63,1.27.47-.26.91-.53,1.33-.81s.8-.6,1.17-.9a25.55,25.55,0,0,0,2.07-1.83l1.82-1.72.29-.25a1.24,1.24,0,0,1,.43,0,3.15,3.15,0,0,1,.44.11l.64.14c.37-.12,1.79-.11,3-.29s2.11-.43,1.56-.72c1.31.09.89.78,4.39.08,1.87-.94,3.93-.67,6.38-1.9-3.23,1.68.06.19-2.8,1.65,2.44-.43,5.63-2.32,9.38-4.22.45-.08.52.07,1,0,1.3-1,2.54-2.33,4.05-2.9l-.4-.2a19.68,19.68,0,0,0,6.77-7.71,6.67,6.67,0,0,0-.67-4,7.75,7.75,0,0,0-1.6-3.69,14.14,14.14,0,0,0-3-2.88,24.56,24.56,0,0,0-6.38-3.28,30,30,0,0,1-3.68-2.32c.39.13,1.06.32,1.82.6-1.08-.57-2.25-1.26-3.37-1.81a12.77,12.77,0,0,0-1.57-.67,4.5,4.5,0,0,0-1.15-.22s-.06-.1-.09-.14a4.26,4.26,0,0,1,.22-2,4.37,4.37,0,0,0,.44-1.7c-.43-2.68-.49-6.61-.91-10.08,0-.44-.09-.86-.13-1.28l-.21-1.2c-.15-.77-.3-1.48-.45-2.11a4.41,4.41,0,0,0-1.11-2.46c.5,2.12,1.07,6.21,1.56,10.31-.3-1.06-.46-.18-.69-1.69-.15-1-.23-1.92-.31-2.76s-.24-1.61-.35-2.38-.22-1.56-.37-2.39a24.92,24.92,0,0,0-.75-2.69l1,.25a21.92,21.92,0,0,0-1.28-5.1,38.54,38.54,0,0,0-1.95-4.59c-.73-1.45-1.36-2.87-2-4.24A20.19,20.19,0,0,1,274.51,85.87Z"/><path class="cls-3" d="M293.45,131.07c-.78-.66-1.59-1.3-2.42-1.92l.1.49A9.86,9.86,0,0,1,293.45,131.07Z"/><path class="cls-3" d="M291.13,129.64a15.15,15.15,0,0,0-1.62-.64,18.49,18.49,0,0,0,1.68.81Z"/><path class="cls-3" d="M268.51,75.44a25.85,25.85,0,0,0-1.8-2.74A15.61,15.61,0,0,0,268.51,75.44Z"/><polygon class="cls-3" points="266.31 72.66 267.02 73.99 267.23 74.12 266.31 72.66"/><path class="cls-3" d="M192.89,27.15,188.16,26c-.71-.54-6-2-4.17-1.87-2.92-.33-8.67-2.84-6.74-1.25,13.55,4,31.74,11.2,46.91,17.33-.83-.27-1.68-.52-2.53-.76a44.38,44.38,0,0,1,5.08,2.14c1.44.69,2.67,1.37,3.83,2s2.31,1.28,3.58,1.85a32.78,32.78,0,0,0,4.27,1.71l-1.17.19a24.25,24.25,0,0,0,2.51,1.35c.83.44,1.67.84,2.5,1.26a20.79,20.79,0,0,1,2.48,1.4,15.28,15.28,0,0,1,2.17,2l-.12-.47c.83.66,1.11,1,1.92,1.68l-.23-.39a25.45,25.45,0,0,1,5.41,5c0,.3-1-.86-1.65-1.42A10,10,0,0,0,254,59.48a16.91,16.91,0,0,1,2.34,2.13c1,1.4-.26.21-.49.1,1.14,1.16,2.11,2.18,2.92,3.15l2.13,2.71c.68.82,1.28,1.62,2,2.4a21.07,21.07,0,0,0,2.33,2.3c.42.26-.68-1.6.77.31a36,36,0,0,0-3.52-4.91c-1.31-1.42-2.57-2.79-4-4.16.24.27.49.53.72.82a5.28,5.28,0,0,1-2.24-2A11.31,11.31,0,0,0,254,59.06a11.16,11.16,0,0,1,2,1.39,15.9,15.9,0,0,0,1.49,1.36c-.41-.61-.82-1.15-1.21-1.65a16.61,16.61,0,0,0-1.21-1.31c-.8-.79-1.54-1.43-2.23-2A16.51,16.51,0,0,1,249,53c.12.08.25.16.36.25a23.64,23.64,0,0,0-3.1-2.13c.27.38,1.27,1.22,1.9,1.83a5.79,5.79,0,0,0-2.41-.87c-.88-1.29-1.7-1-3.55-2.43-.47-.82,1.88.73,2.75,1l-2.55-1.29c-2.21-1.36-1.91-1.77-2.91-2.61-2.1-.8,1,.84-.79.37a27.44,27.44,0,0,0-3-2c-1.37-.84-3.11-1.7-4.92-2.63s-3.75-1.75-5.55-2.55-3.5-1.44-4.85-1.92c1.82.73.83-.15,3,.88-.74-.44-3.64-1.47-3.8-1.17-1.85-.68-3.92-1.53-5.93-2.42s-4-1.84-5.63-2.65l.87.71c-3.07-.62-7.11-3.26-12.36-4.83h.1c-1.68-.53-3.36-.29-6.34-1.51C191.3,27,192.92,27.59,192.89,27.15Z"/><path class="cls-3" d="M176.33,20.65V20.5l-1.69,1.25,1.68.08a9.26,9.26,0,0,0-1.56-.44l1.2-.89c0,.34.08.67.14,1l.1.44v.15h-2.43v-.18c-.14-.45-.29-.67-.41-.52s0,.4,0,.6v.12h3.29V20.49l-2.14,1.59c.45.14.79.22.92.14a1.37,1.37,0,0,0-.82-.45l1.72-1.27Z"/><path class="cls-3" d="M153.94,2c-.65.16-.46.31-.72.48a16.52,16.52,0,0,1,2.63-.09,21.41,21.41,0,0,1,2.78.41A27.73,27.73,0,0,1,164,4.45a15.12,15.12,0,0,1,6.26,4.4A21.63,21.63,0,0,0,172,10.7a5.72,5.72,0,0,1,1.55,2.54,8.78,8.78,0,0,1-.25,1.34,21.76,21.76,0,0,1,.14,3.87c0,1.33.08,2.21.46,1.25a18.39,18.39,0,0,1-.23-3.06l.27.24a15.82,15.82,0,0,0-.06-1.71,10.26,10.26,0,0,0-.21-1.56c.17.31.31.64.47,1A4.46,4.46,0,0,0,172.8,11c-.32-.33-.67-.66-1.13-1.16s-1-1.17-2-2.13l.48-.47a18.84,18.84,0,0,0-3.82-2.61c-1.21-.64-2.39-1.21-3.91-2,0,0-.14.31.52.4.58.26,1.22.81.75.84-1.36-.41-2-.55-2.22-.65s-.05-.11.19-.14c.46,0,1.21-.14-.68-.88a36.43,36.43,0,0,0-4.3-.59,13.29,13.29,0,0,0-2.36,0A17.37,17.37,0,0,0,152,2a23.92,23.92,0,0,0-6.72,2.82c1-.51.91-.17.32.47l-1,1.21a7.27,7.27,0,0,0-1,1.27c-.3.32-.33.17-.26-.16a7,7,0,0,1,.37-1,4.9,4.9,0,0,0-.92,1.16,2.38,2.38,0,0,0-.3,1.38c.22-.65.49-.65.63-.35s.17.38.28.66.14.32.22.47l.15.25a.88.88,0,0,0,.08.11s.07.1,0,0,0,0,0,0l0-.15a1.35,1.35,0,0,0-.09-.33,3.36,3.36,0,0,1-.06-.63A2.76,2.76,0,0,1,143.87,8a10.36,10.36,0,0,1,2.38-2.73A12.41,12.41,0,0,1,153.94,2Z"/><path class="cls-3" d="M152.22,2.73a3.41,3.41,0,0,0,1-.3,15.64,15.64,0,0,0-2.34.47A12.27,12.27,0,0,1,152.22,2.73Z"/></g><g id="Cup_Lines" data-name="Cup Lines"><path class="cls-4" d="M78.69,307.8l.44-.25-.44.25Z"/><path class="cls-4" d="M79.61,306.36l-.69.58.69-.58Z"/><path class="cls-4" d="M76.65,289.25v0Z"/><path class="cls-4" d="M74.51,278.71l.17.09-.17-.09Z"/><path class="cls-4" d="M74.83,276.76v0Z"/><path class="cls-4" d="M76.65,289.25l.13-.33-.13.33Z"/><path class="cls-4" d="M77.51,304.4l.21.11-.21-.11Z"/><path class="cls-4" d="M78.25,293.74l.26.08-.26-.08Z"/><path class="cls-4" d="M79.19,297.25h0Z"/><path class="cls-4" d="M79.51,303.09l.1.08-.1-.08Z"/><path class="cls-4" d="M77.78,291.18l.19-.08-.19.08Z"/><path class="cls-4" d="M50.38,193.2h0Z"/><path class="cls-4" d="M52.13,188.47h0Z"/><path class="cls-4" d="M67.3,243.43l-1.18.23,1.18-.23Z"/><path class="cls-4" d="M77.56,304.29v0Z"/><path class="cls-4" d="M66.12,243.66v0Z"/><path class="cls-4" d="M72.66,265.88l-.22.13.22-.13Z"/><path class="cls-4" d="M73.2,271.67v0Z"/><path class="cls-4" d="M71.21,263.15l-.06-.17.06.17Z"/><path class="cls-4" d="M70.51,260.12l-.05.17.05-.17Z"/><path class="cls-4" d="M52.82,202.35l.45-.25-.45.25Z"/><path class="cls-4" d="M77.82,304.33l-.2.1.2-.1Z"/><path class="cls-4" d="M66.86,264v0Z"/><path class="cls-4" d="M58,224.08l-.09-.1.09.1Z"/><path class="cls-4" d="M66.41,262.13l.16-.36-.16.36Z"/><path class="cls-4" d="M51.23,199.23l22.86,87.43v-.17L79,300.42,58,207.38l.37.76-8.52-18.48,1.42,9.57Zm4.17,10.33-.08-.21.08.21Zm.22.9.33-.4-.33.4Zm3.35-2.8h0Z"/><path class="cls-4" d="M58.19,207.57l-.11.12.11-.12Z"/><path class="cls-4" d="M76.59,289.4l-.07.06.07-.06Z"/><polygon class="cls-4" points="57.5 223.14 57.5 223.06 57.5 223.14 57.5 223.14"/><path class="cls-4" d="M75.88,294.8l-.13.1.13-.1Z"/><path class="cls-4" d="M76.26,297l-.12.35.12-.35Z"/><path class="cls-4" d="M76.38,298.68h0Z"/><path class="cls-4" d="M69.57,272.64v0Z"/><path class="cls-4" d="M72.68,280.14l-.32-.19.32.19Z"/><path class="cls-4" d="M72.29,279.58l.07.37-.07-.37Z"/><path class="cls-4" d="M77.81,305.88l.09.12-.09-.12Z"/><path class="cls-4" d="M77.89,306l.09.07-.09-.07Z"/><path class="cls-4" d="M78.16,306.18,78,306l.18.15Z"/><path class="cls-4" d="M77.51,303.64h0Z"/><path class="cls-4" d="M77.33,303v0Z"/><path class="cls-4" d="M79.14,299.65l.55.49-.55-.49Z"/><path class="cls-4" d="M79,297.86l.43-.09-.43.09Z"/><path class="cls-4" d="M76.11,285.41l.51-.09-.51.09Z"/><polygon class="cls-4" points="72.98 283.64 73.2 283.93 72.98 283.64 72.98 283.64"/><polygon class="cls-4" points="76.19 281.4 76.29 281.48 76.02 281.14 76.19 281.4 76.19 281.4"/><path class="cls-4" d="M71.1,260.54l-.6.22.6-.22Z"/><path class="cls-4" d="M68.35,251.67l.09-.56-.09.56Z"/><polygon class="cls-4" points="62.99 224.37 63.23 224.51 62.99 224.37 62.99 224.37"/><path class="cls-4" d="M106.67,311.7l.46-.21-.46.21Z"/><path class="cls-4" d="M107.71,310.37l-.75.55.75-.55Z"/><path class="cls-4" d="M106.18,293.62l-.06.12.06-.12Z"/><path class="cls-4" d="M105,283.29l.16.09-.16-.09Z"/><path class="cls-4" d="M105.41,281.42v0Z"/><path class="cls-4" d="M106.18,293.62l.16-.3-.16.3Z"/><path class="cls-4" d="M105.78,308.33l.19.12-.19-.12Z"/><path class="cls-4" d="M107.4,298.08l.28.08-.28-.08Z"/><path class="cls-4" d="M108,301.54h0Z"/><path class="cls-4" d="M107.91,307.2l.09.09-.09-.09Z"/><path class="cls-4" d="M107.14,295.57l.2-.06-.2.06Z"/><path class="cls-4" d="M88,198.93h0Z"/><path class="cls-4" d="M90.13,194.48l.31.05-.31-.05Z"/><path class="cls-4" d="M100.68,248.68l-1.2.14,1.2-.14Z"/><path class="cls-4" d="M105.84,308.23v0Z"/><path class="cls-4" d="M99.51,248.82v0Z"/><path class="cls-4" d="M104.15,270.75l-.23.11.23-.11Z"/><path class="cls-4" d="M104.21,276.39v0Z"/><path class="cls-4" d="M102.93,268l-.06-.21.06.21Z"/><path class="cls-4" d="M102.51,265l-.05.16.05-.16Z"/><path class="cls-4" d="M89.66,208l.48-.22-.48.22Z"/><path class="cls-4" d="M106.09,308.28l-.25.09.25-.09Z"/><path class="cls-4" d="M98.51,268.56v0Z"/><path class="cls-4" d="M93,229.31l-.08-.1.08.1Z"/><path class="cls-4" d="M98.23,266.68l.2-.32-.2.32Z"/><path class="cls-4" d="M88.35,204.82l18.31,102.33L94.54,213.49l.19.6-6.85-18.34.47,9.07Zm3.29,10.27-.06-.22.06.22Zm.15.89.39-.39-.39.39Zm3.56-2.47h0Z"/><path class="cls-4" d="M94.58,213.37l-.11,0,.11,0Z"/><path class="cls-4" d="M106.11,293.76l-.08.06.08-.06Z"/><polygon class="cls-4" points="92.6 228.37 92.61 228.29 92.6 228.37 92.6 228.37"/><path class="cls-4" d="M105,298.93l-.13.09.13-.09Z"/><path class="cls-4" d="M105.15,301.06l-.15.33.15-.33Z"/><path class="cls-4" d="M100.51,277.07v0Z"/><path class="cls-4" d="M103,284.53l-.3-.2.3.2Z"/><path class="cls-4" d="M98.51,268.62v0Z"/><path class="cls-4" d="M102.64,284v0Z"/><path class="cls-4" d="M106,309.78l.09.08-.09-.08Z"/><path class="cls-4" d="M106,309.86l.08.07-.08-.07Z"/><path class="cls-4" d="M106.28,310.1l-.17-.17.17.17Z"/><path class="cls-4" d="M105.72,307l0,.66,0-.66Z"/><path class="cls-4" d="M107.79,303.85l.48.51-.48-.51Z"/><path class="cls-4" d="M107.84,302.11l.44-.05-.44.05Z"/><path class="cls-4" d="M106,289.88l.51-.05-.51.05Z"/><polygon class="cls-4" points="102.99 287.94 103.19 288.24 102.99 287.94 102.99 287.94"/><polygon class="cls-4" points="106.38 286 106.46 286.09 106.22 285.74 106.38 286 106.38 286"/><path class="cls-4" d="M103,265.48l-.62.17.62-.17Z"/><path class="cls-4" d="M101,256.71l.13-.53-.13.53Z"/><polygon class="cls-4" points="97.96 229.95 98.2 230.1 97.96 229.95 97.96 229.95"/><path class="cls-4" d="M137.66,312.63l.47-.19-.47.19Z"/><path class="cls-4" d="M138.78,311.4l-.78.49.78-.49Z"/><path class="cls-4" d="M138.24,295.13l-.06.11.06-.11Z"/><path class="cls-4" d="M137.64,285.08l.15.1-.15-.1Z"/><path class="cls-4" d="M138.2,283.3v0Z"/><path class="cls-4" d="M138.24,295.13l.19-.29-.19.29Z"/><path class="cls-4" d="M137,309.32l.19.13-.19-.13Z"/><path class="cls-4" d="M139.2,299.5l.28.08-.28-.08Z"/><path class="cls-4" d="M139.63,302.87l-.79-.05.79.05Z"/><path class="cls-4" d="M139.17,308.34l.08.09-.08-.09Z"/><path class="cls-4" d="M139.09,297.06l.2-.05-.2.05Z"/><path class="cls-4" d="M125.74,202.68h0Z"/><path class="cls-4" d="M128.13,198.49Z"/><path class="cls-4" d="M135.43,251.41l-1.2.07,1.2-.07Z"/><path class="cls-4" d="M137,309.23v0Z"/><path class="cls-4" d="M134.23,251.48v0Z"/><path class="cls-4" d="M137.58,272.92l-.23.1.23-.1Z"/><path class="cls-4" d="M137.31,278.37l.06-.14-.06.14Z"/><path class="cls-4" d="M136.51,270.21l-.06-.2.06.2Z"/><path class="cls-4" d="M136.24,267.31l-.11.15.11-.15Z"/><path class="cls-4" d="M126.86,211.48l.49-.18-.49.18Z"/><path class="cls-4" d="M137.29,309.29l-.25,0,.25,0Z"/><path class="cls-4" d="M132.1,270.52v0Z"/><path class="cls-4" d="M129,232.3l-.08-.1.08.1Z"/><path class="cls-4" d="M131.92,268.69l.21-.3-.21.3Z"/><path class="cls-4" d="M125.74,208.39l12.23,100-4.11-73.53V235l-2.29-18,0,.76-5.78-18.15-.08,8.77Zm2.67,10.1v0Zm.09.86.39-.32-.39.32Zm3.71-2.2-.29,0,.29,0Z"/><path class="cls-4" d="M131.45,217l-.17,0,.17,0Z"/><path class="cls-4" d="M138.17,295.26l-.08.05.08-.05Z"/><polygon class="cls-4" points="128.58 231.37 128.59 231.29 128.58 231.37 128.58 231.37"/><path class="cls-4" d="M136.7,300.2l-.13.08.13-.08Z"/><path class="cls-4" d="M136.78,302.26l-.18.31.18-.31Z"/><path class="cls-4" d="M133.57,278.84v0Z"/><path class="cls-4" d="M135.6,286.18l-.29-.21.29.21Z"/><path class="cls-4" d="M135.29,285.62v0Z"/><path class="cls-4" d="M137.06,310.73l.09.08-.09-.08Z"/><path class="cls-4" d="M137.13,310.81l.08.08-.08-.08Z"/><path class="cls-4" d="M137.36,311.05l-.15-.16.15.16Z"/><path class="cls-4" d="M137,308l-.08.62L137,308Z"/><path class="cls-4" d="M139.25,305.1l.45.55-.45-.55Z"/><path class="cls-4" d="M139.4,303.42h0Z"/><path class="cls-4" d="M138.25,291.5h0Z"/><polygon class="cls-4" points="135.4 289.47 135.58 289.77 135.4 289.47 135.4 289.47"/><polygon class="cls-4" points="138.9 287.78 138.98 287.87 138.76 287.52 138.9 287.78 138.9 287.78"/><path class="cls-4" d="M136.79,267.77l-.63.13.63-.13Z"/><path class="cls-4" d="M135.31,259.19l.16-.5-.16.5Z"/><polygon class="cls-4" points="133.83 233.17 134.06 233.33 133.83 233.17 133.83 233.17"/><path class="cls-4" d="M166.66,312.42l.49-.11-.49.11Z"/><path class="cls-4" d="M168,311.39l-.81.35.81-.35Z"/><path class="cls-4" d="M170,295.43l-.09.1.09-.1Z"/><path class="cls-4" d="M171,285.52l.14.12-.14-.12Z"/><path class="cls-4" d="M171.79,283.87l0,.1,0-.1Z"/><path class="cls-4" d="M170,295.43l.22-.25-.22.25Z"/><path class="cls-4" d="M166.51,309.08l.16.16-.16-.16Z"/><path class="cls-4" d="M170.24,299.84l.26.16-.26-.16Z"/><path class="cls-4" d="M170.13,303.21l-.77-.18.77.18Z"/><path class="cls-4" d="M168.82,308.47l.07.1-.07-.1Z"/><path class="cls-4" d="M170.51,297.44h0Z"/><path class="cls-4" d="M172.11,203.23h0Z"/><path class="cls-4" d="M175.13,199.51l.31.05-.31-.05Z"/><path class="cls-4" d="M174.05,252.31l-1.2-.11,1.2.11Z"/><path class="cls-4" d="M166.57,309v0Z"/><path class="cls-4" d="M172.85,252.2h0Z"/><path class="cls-4" d="M172.8,273.65l-.25.05.25-.05Z"/><path class="cls-4" d="M171.67,278.92l.09-.13-.09.13Z"/><path class="cls-4" d="M172.18,270.83v0Z"/><path class="cls-4" d="M172.36,268l-.12.14.12-.14Z"/><path class="cls-4" d="M171.84,212l.51-.1-.51.1Z"/><path class="cls-4" d="M166.81,309.1h0Z"/><path class="cls-4" d="M167.76,270.44l.11-.45-.11.45Z"/><path class="cls-4" d="M170.64,232.65l-.06-.11.06.11Z"/><path class="cls-4" d="M167.88,268.63l.26-.3-.26.3Z"/><path class="cls-4" d="M171.21,208.8l-3.48,99.37,7.57-108.39-4.09,9Zm1.06,10.28v0Zm0,.85.42-.25-.46.25Zm4-1.56-.28-.06.28.06Z"/><path class="cls-4" d="M175.51,218.08h0Z"/><path class="cls-4" d="M169.88,295.55h0Z"/><polygon class="cls-4" points="170.43 231.68 170.45 231.6 170.43 231.68 170.43 231.68"/><path class="cls-4" d="M167.66,300.14l-.15.05.15-.05Z"/><path class="cls-4" d="M167.41,302.16l-.22.28.22-.28Z"/><path class="cls-4" d="M167,303.71l.24.05-.24-.05Z"/><path class="cls-4" d="M167.91,278.8v0Z"/><path class="cls-4" d="M168.77,286.28l-.26-.28.26.28Z"/><path class="cls-4" d="M168.51,285.68v0Z"/><path class="cls-4" d="M166.36,310.47l.09.08-.09-.08Z"/><path class="cls-4" d="M166.42,310.56l.06.09-.06-.09Z"/><path class="cls-4" d="M166.61,310.83l-.13-.18.13.18Z"/><path class="cls-4" d="M166.75,308.42h0Z"/><path class="cls-4" d="M166.73,307.79l-.19.56.19-.56Z"/><path class="cls-4" d="M169.4,305.32l.37.57-.37-.57Z"/><path class="cls-4" d="M169.82,303.7h0Z"/><path class="cls-4" d="M170.51,291.88l.51.06-.51-.06Z"/><polygon class="cls-4" points="168.05 289.46 168.19 289.79 168.05 289.46 168.05 289.46"/><polygon class="cls-4" points="171.77 288.35 171.84 288.45 171.68 288.08 171.77 288.35 171.77 288.35"/><path class="cls-4" d="M172.82,268.5h0Z"/><path class="cls-4" d="M172.71,259.89l.24-.47-.24.47Z"/><polygon class="cls-4" points="175.33 234.26 175.53 234.44 175.33 234.26 175.33 234.26"/><path class="cls-4" d="M191.68,311.24l.51-.05-.51.05Z"/><path class="cls-4" d="M193.11,310.37l-.9.25.9-.25Z"/><path class="cls-4" d="M197.38,294.4l-.09.09.09-.09Z"/><path class="cls-4" d="M199.76,284.46l.12.14-.12-.14Z"/><path class="cls-4" d="M200.82,282.89l-.06.1.06-.1Z"/><path class="cls-4" d="M197.38,294.4l.26-.22-.26.22Z"/><path class="cls-4" d="M192,307.82l.14,0-.14,0Z"/><path class="cls-4" d="M197,298.93l.25.2-.25-.2Z"/><path class="cls-4" d="M196.44,302.33l-.75-.28.75.28Z"/><path class="cls-4" d="M194.38,307.51l.06.11-.06-.11Z"/><path class="cls-4" d="M197.63,296.52h0Z"/><path class="cls-4" d="M212.61,200.91h0Z"/><path class="cls-4" d="M216.13,197.53l.31.13-.31-.13Z"/><path class="cls-4" d="M207.51,251.09l-1.17-.28,1.17.28Z"/><path class="cls-4" d="M192.09,307.75v0Z"/><path class="cls-4" d="M206.38,250.81h0Z"/><path class="cls-4" d="M203.28,272.63h0Z"/><path class="cls-4" d="M201.41,277.84l.11-.12-.11.12Z"/><path class="cls-4" d="M203.07,269.68v0Z"/><path class="cls-4" d="M203.65,266.78l-.12.1.12-.1Z"/><path class="cls-4" d="M211.09,209.78h0Z"/><path class="cls-4" d="M192.31,307.88l-.22,0,.22,0Z"/><path class="cls-4" d="M198.74,268.69l.18-.45-.18.45Z"/><path class="cls-4" d="M207,230.63v0Z"/><path class="cls-4" d="M199.11,266.86l.31-.27-.31.27Z"/><path class="cls-4" d="M210.93,206.45,193.85,308.38,214.12,216l-.07.82-.21-19.46-2.91,9.1Zm-.41,10.6v0Zm-.17.86.46-.2-.46.2Zm4.19-1-.26-.08.26.08Z"/><path class="cls-4" d="M213.86,216.47h0Z"/><path class="cls-4" d="M197.27,294.51h0Z"/><polygon class="cls-4" points="206.89 229.61 206.93 229.54 206.89 229.61 206.89 229.61"/><path class="cls-4" d="M194.42,298.88h0Z"/><path class="cls-4" d="M193.88,300.91l-.25.25.25-.25Z"/><path class="cls-4" d="M193.29,302.43l.23.08-.23-.08Z"/><path class="cls-4" d="M197.71,277.21v0Z"/><path class="cls-4" d="M197.51,284.93l-.22-.29.22.29Z"/><path class="cls-4" d="M198.72,268.73v0Z"/><path class="cls-4" d="M197.35,284.3l-.08.34.08-.34Z"/><path class="cls-4" d="M191.66,309.22l.09.07-.09-.07Z"/><path class="cls-4" d="M191.71,309.32l0,.09,0-.09Z"/><path class="cls-4" d="M191.86,309.62l-.1-.21.1.21Z"/><path class="cls-4" d="M192.34,307.18l-.2-.06.2.06Z"/><path class="cls-4" d="M192.41,306.53l-.27.59.27-.59Z"/><path class="cls-4" d="M195.41,304.38l.28.64-.28-.64Z"/><path class="cls-4" d="M196.05,302.8l.43.09-.43-.09Z"/><path class="cls-4" d="M198.51,290.88l.5.13-.5-.13Z"/><polygon class="cls-4" points="196.33 288.07 196.41 288.42 196.33 288.07 196.33 288.07"/><polygon class="cls-4" points="200.17 287.45 200.22 287.56 200.12 287.15 200.17 287.45 200.17 287.45"/><path class="cls-4" d="M204,267.39l-.63-.06.63.06Z"/><path class="cls-4" d="M205.15,258.62l.3-.44-.3.44Z"/><polygon class="cls-4" points="211.38 232.9 211.55 233.12 211.38 232.9 211.38 232.9"/><path class="cls-4" d="M216.73,308.08h0Z"/><path class="cls-4" d="M218.25,307.37l-.91.15.91-.15Z"/><path class="cls-4" d="M224.51,291.81l-.11.08.11-.08Z"/><path class="cls-4" d="M228.07,282.09l.1.15-.1-.15Z"/><path class="cls-4" d="M229.32,280.64l-.07.08.07-.08Z"/><path class="cls-4" d="M224.51,291.81l.28-.19-.28.19Z"/><path class="cls-4" d="M217.51,304.68l.12,0-.12,0Z"/><path class="cls-4" d="M223.51,296.32l.23.23-.23-.23Z"/><path class="cls-4" d="M222.51,299.68l-.7-.37.7.37Z"/><path class="cls-4" d="M219.87,304.65v0Z"/><path class="cls-4" d="M224.51,294h0Z"/><path class="cls-4" d="M251.21,199.53h0Z"/><path class="cls-4" d="M255.13,196.55l.29.17-.29-.17Z"/><path class="cls-4" d="M240,249.43l-1.13-.42,1.13.42Z"/><path class="cls-4" d="M217.56,304.62v0Z"/><path class="cls-4" d="M238.82,249h0Z"/><path class="cls-4" d="M233,270.6h0Z"/><path class="cls-4" d="M230.51,275.62l.11-.1-.11.1Z"/><path class="cls-4" d="M233.19,267.61l0-.18,0,.18Z"/><path class="cls-4" d="M234.13,264.75l-.12.1.12-.1Z"/><path class="cls-4" d="M248.6,208.29h0Z"/><path class="cls-4" d="M217.76,304.78l-.2-.06.2.06Z"/><path class="cls-4" d="M229,266.1l.23-.43-.23.43Z"/><path class="cls-4" d="M241.92,228.77v0Z"/><path class="cls-4" d="M229.61,264.3l.34-.23-.34.23Z"/><path class="cls-4" d="M248.85,204.91,236.67,245.1V245l-17.31,60.51,30.94-90.4-.13.82,2.44-19.42-3.76,8.36Zm-1.72,10.62v0Zm-.28.85.48-.16-.48.16Zm4.3-.57-.28-.11.28.11Z"/><path class="cls-4" d="M250.51,215.33l-.14-.06.14.06Z"/><path class="cls-4" d="M224.35,291.91h0Z"/><polygon class="cls-4" points="241.97 227.74 242.01 227.67 241.97 227.74 241.97 227.74"/><path class="cls-4" d="M221,296h0Z"/><path class="cls-4" d="M220.19,298l-.28.22.28-.22Z"/><path class="cls-4" d="M219.41,299.41l.22.11-.22-.11Z"/><path class="cls-4" d="M226.93,274.55v0Z"/><path class="cls-4" d="M225.75,282.3l-.17-.32.17.32Z"/><path class="cls-4" d="M225.7,281.64l-.12.34.12-.34Z"/><path class="cls-4" d="M217,306.05l.08.07-.08-.07Z"/><path class="cls-4" d="M217,306.15v0Z"/><path class="cls-4" d="M217.1,306.48l-.08-.22.08.22Z"/><path class="cls-4" d="M217.88,304.08l-.19-.09.19.09Z"/><path class="cls-4" d="M218,303.44l-.34.55.34-.55Z"/><path class="cls-4" d="M221.28,301.62l.2.68-.2-.68Z"/><path class="cls-4" d="M222.11,300.1l.42.15-.42-.15Z"/><path class="cls-4" d="M226,288.39l.48.19-.48-.19Z"/><polygon class="cls-4" points="224.21 285.32 224.25 285.68 224.21 285.32 224.21 285.32"/><polygon class="cls-4" points="228.11 285.14 228.15 285.26 228.09 284.84 228.11 285.14 228.11 285.14"/><path class="cls-4" d="M234.44,265.42l-.62-.14.62.14Z"/><path class="cls-4" d="M236.63,256.72l.36-.41-.36.41Z"/><polygon class="cls-4" points="246.02 231.58 246.16 231.82 246.02 231.58 246.02 231.58"/></g><path id="Mouth" class="cls-5" d="M108.16,122.26c2.67,2.26,13.83,7.24,16.83,10.24s20,3,30.28,3.83S174,130.5,179,128.5s15-11,17-13,3-5,2-6-2-3-6,1-18,14-22,17-10.61,2-21,3c-10,1-26-6-30.5-7.67S109,114.5,107,113.5a3,3,0,0,0-3.89,1.68c0,.11-.08.21-.11.32C103,116.5,104.32,119,108.16,122.26Z"/><path id="eyeL" class="cls-5" d="M83.51,53c-2.92,2.92-3,12,2,16s14,4,17.5,0,7.5-10,4.5-15-10-8-14-6S86.51,50,83.51,53Z"/><path id="eyeR" class="cls-5" d="M196.51,49c4,.57,11,4,10,10s-8,14-13.5,13-12.5-3.91-12-11.46S189.51,48,196.51,49Z"/><path id="Nose" class="cls-5" d="M154.51,73s0-7-3-7-3,5-3,5-.61,5.67,2.19,5.83S154.51,75,154.51,73Z"/><path id="Nose-2" class="cls-5" d="M69.78,112s-3.4-4.58-4.72-3.6,1.11,4.25,1.11,4.25,2.49,3.91,3.8,3.1S70.75,113.31,69.78,112Z"/><path id="Nose-3" class="cls-5" d="M253.51,97.13s-2.83-3.8-4.35-2.67.5,3.85.5,3.85,2,3.3,3.47,2.34S254.31,98.22,253.51,97.13Z"/><path id="Nose-4" class="cls-5" d="M126,47.05s1.33-2-1.31-3.76-3.59-.33-3.59-.33-1.62,1.27.82,3S125.61,47.62,126,47.05Z"/><path id="Nose-5" class="cls-5" d="M210.77,45.89s2.4,0,2.47-3.12-1.64-3.21-1.64-3.21-1.93-.69-2.06,2.27S210.08,45.87,210.77,45.89Z"/></g></g></svg>