<svg id="Layer_1" data-name="Layer 1" xmlns="http://www.w3.org/2000/svg" viewBox="0 0 1029.61 47.3" preserveAspectRatio="none" fill="none"><defs><style>.cls-1{fill:#575756;fill-rule:evenodd;}</style></defs><path class="cls-1" d="M1025.3,43.84a11.41,11.41,0,0,1,1.36-.71,4.42,4.42,0,0,0,1.61-1.54,3.56,3.56,0,0,0,.44-1.22c.06-.41.07-1,.1-1.52,0-1,.1-2.06.11-3,0-3.76,0-7.71-.11-11.79.07-1.25.15-2.39.29-3.29a41.56,41.56,0,0,1-.25-6.59c0-1.19.06-2.41.09-3.6,0-.6,0-1.19,0-1.77a7.22,7.22,0,0,0-.07-1.64,4.22,4.22,0,0,0-.89-1.45,3.7,3.7,0,0,0-2.49-1.57c-1.92-.08-3.23.15-5.65.14-1.64,0-3.45-.21-5.18-.22-1.21,0-2.26.18-3.3.17-1.33,0-2.49-.27-3.77-.3-5.17-.13-11,.25-16.5.09C987,4,981.42,3.69,977.46,4c-5.38-.67-11.66-.18-17-.64-1.26.05-1.8.25-2.84.35-2.63,0-5.43-.31-8-.32-5.68,0-12.08.29-17.92.17-2.68-.05-4.91-.64-7.54-.13-14.65-.47-30.69-.81-50-.56a22.24,22.24,0,0,0-3.3-.3,32.07,32.07,0,0,0-3.77.26c-13.72-.59-25.35,0-36.75-.94a82,82,0,0,1-12.73,0l-49,.18c-9.84.46-20,.31-32.55.45-2.54.51-9.24.17-11.81.67-2.23-.39-4.2.19-5.64-.31-7.22.5-17.8,0-25.95.41a95.51,95.51,0,0,0-14.14-.17,143.83,143.83,0,0,0-15.56,0C658.62,3,650.78,3,646,3.32c-4.83-.51-13,.11-17.45-.1-1.06-.05-1.4-.28-2.35-.29-4.69-.05-10.13.6-15.55-.09-1.65,0-2,.21-3.31.26-.65-.18-2.44-.15-3.29-.29-11.38.28-23.19-.21-33,.08-7.73-.27-13.07.09-19.33,0-1.37,0-2.68-.26-4.23-.3-5.92-.16-13.94.11-21.69.06-7.42-.05-13-.53-18.39,0-7.36-.3-12.47-.38-21.21-.22-12.67-.66-28.57-.46-40.05-.87a93.11,93.11,0,0,1-12.25-.34,3,3,0,0,0-.95.27c-11-.7-22.26.05-32-.73-3.44.12-6.81-.19-9.43.13-7.14-.35-19.91-.17-28.3.2-9.52-.32-19.91.06-27.35.13-7.46-.43-15.31,0-22.63,0-4.33,0-8.68-.5-12.73.11-14.24.09-27.26,0-40.57.6-18.28-.38-36.41.66-54.22.24-5.82.36-12.35,0-17.92,0-6.79,0-13.89.63-22.18.52-1.51-.09-.65.29-1.89.26-3.73.06-7.05-.33-9,.13a60.56,60.56,0,0,0-10.85.31c-3.66-.11-7.22.22-11.33.39-3.91.16-9.42-.19-11.33.49-5.95-.26-10.64.43-17.45.08-16.69.76-35.57.83-50.46.45-8.42-.21-17.15,0-25.46,0-3.44,0-6.61-.26-9.9-.24-2.9,0-4.76,0-8.95,0-1.3,0-2.67,0-4.06,0a4.43,4.43,0,0,0-1.89.25A3.45,3.45,0,0,0,1.61,5.76,3.62,3.62,0,0,0,.9,7.35a12.08,12.08,0,0,0,0,1.82c0,1.24,0,2.39,0,3.39C.82,16.14.57,19.46.54,22.93.51,27.93.77,33,.73,38l0,1.83A3.74,3.74,0,0,0,1,41.48a3.69,3.69,0,0,0,2.45,2.15,7.63,7.63,0,0,0,1.76.16L7,43.84l3.62.09c11.58-.3,24.85.59,34.39,1.11,1.38,0,1.45-.2,2.83-.17.52.3,3.72.09,4.24.39,9-.27,18,.93,27.33.52,1,.15,5.93.44,7.07-.05,5,.48,12.42,0,17,.46.89,0,.34-.3,1.42-.26,3.56.34,8,.13,12.26.16,7.91,0,14.75.56,25,.6,4.94,0,11.58-.24,17-.27L177,46.24c7.94-.06,16.12-.2,24.53-.5,8.79.26,20,.13,29.69.44,7.18.24,14.69-.46,18.85.29,4.8.13,6.42-.23,10.84.16a12.53,12.53,0,0,0,2.84-.17l43.85-.21c2,0,3.77-.22,5.67-.24,4,0,8.44.26,12.26-.3a96.63,96.63,0,0,0,13.68-.11c1.53.27,5,.35,6.13-.15,5,.19,10.58-.37,15.09-.09,5.42-.47,9.88-.27,13.7-.66,6,.46,11.4-.24,17.45-.36s12.47.16,18.39,0c4-.1,6.49-.08,10.37,0,3.68,0,7.07-.34,11.32.06a16.82,16.82,0,0,0,2.83-.25c3.76.58,8.72-.16,12.74-.21,2.11,0,4.28.19,6.59.13,3-.07,8-.08,10.86-.4,4.72.22,9.24-.25,14.62-.19,9.28-.75,23.58-.6,31.65-1.93,10.46-.25,21.66-1.53,33.51-1.28,1.7,0,2.29-.21,3.78-.25,6.51.6,16.07-.14,21.2.76,6.48,0,15.37.45,19.31.48a2.84,2.84,0,0,1,1.88.28c11.85.45,25.8.65,37.68,1.32,10.29-.45,19.47,1,29.23.16,6.14.64,12.06.22,17.9.29,3.1,0,6.24.38,9.42.42,6.94.08,12.4-.33,19.8.2,5-.66,11.3.4,17-.27,4.77.6,10.35-.1,16.49.37,8.64-.3,21.3-.12,31.6-.46a42.34,42.34,0,0,0,8-.23c3.17.33,9.39,0,12.24.34,3.83-.65,14,.16,19.81-.25,8,.69,14.08-.73,22.16,0,8.35-.83,17.25-.41,25-.5,6.12-.07,12-.64,18.87-.44,1.07,0,2.41.19,3.76.2,3,0,6-.24,9-.22,3.71,0,7,.27,10.84.24,23.93-.17,47.71-.37,73.07.14,6.48-.16,17.59,0,24,.23a94.39,94.39,0,0,1,14.14.08,97.68,97.68,0,0,1,14.62.08c.12.16-2.83.15-1.43.27a.51.51,0,0,1-.47,0c-29.67.27-55.33-.19-85.33-.12l-40.55.14c-4.37,0-8.44-.46-12.26-.07-1.3-.15-4.07,0-4.71-.3-12.15.45-24.34.2-36.32.62-6.69.23-15.07.15-23.58.32-6.49.13-13.14.33-22.17.24-7.53-.07-15.22-.43-22.62-.22-2,.06-4.5.12-8,.14-9.44,0-17.41.35-26,.4l-13.2,0a64.41,64.41,0,0,1-9-.33c-26.22.5-50.9-.8-74.48-.51-12.19-.72-22.22-.42-33.91-1.11a46.44,46.44,0,0,1-7.54-.32c-6.91,0-14.75-.43-21.66-.67-14.61-.51-27.94-1.33-40.52-1-1,0-1.43.22-2.37.26-3.18.13-6.7,0-9.9.13-4.1.21-8.77.66-14.17.74-1.67,0,1,.31-.48.27-7.24.48-14.27.84-20.31,1.36-9.12.23-17.7.57-26.43.95-2.77-.32-6.12.27-9,.31-.59,0-1.28-.18-1.88-.19-7.21-.13-15.35.45-22.64.51-7.71.07-18-.33-26.88-.15-3.5.07-6.13.14-9.9.13-7,0-14,.39-21.23.61-2.76.09-5.78-.05-8.49,0-2.06.07-3.93.31-5.67.34a39.3,39.3,0,0,0-6.13.15c-9.06-.11-15,.53-23.11.23-21.31.46-45,.85-67.92.9-5.72,0-12.19,0-18.39-.19-3.28-.08-6.24-.27-10.36-.34-10.87-.18-26.84-.27-39.6-.13-9.61.11-19.86.41-30.19.56-7.67.12-16.52-.06-24.52,0-2.77,0-5.28.19-8,.13-1.1,0-.76-.23-1.87-.28-.45,0-3,.07-4.25.07a83.47,83.47,0,0,1-9-.24c-2.59.11-4.67-.07-6.6-.13-6.48-.2-13,.13-19.33.08-7-.06-14.59-.34-21.67-.49-3.73-.08-7.38.05-10.85-.06-2.17-.08-4-.34-6.11-.41-6.33-.21-11.52,0-16.49-.64-1.85.1-1.75,0-3.77.07-8.15-.74-18.35-.88-29.13-.93a6,6,0,0,1-2.11-.23A4.25,4.25,0,0,1,1.12,42.9,4.33,4.33,0,0,1,.11,41,5,5,0,0,1,0,39.89v-1l0-8.25c0-5.49.1-10.95.28-16.18C.17,12.34.16,10.62.17,8.63A6.57,6.57,0,0,1,.3,7.07,4.15,4.15,0,0,1,1.06,5.5,4.25,4.25,0,0,1,4.79,3.91c7.47-.06,15.42.31,25.92.23C48,4,65.49,4.58,82.1,4.34c3.66,0,7.47-.36,11.33-.39,2.76,0,5.46.12,8,0,5.76-.17,11.3-.48,17-.63,7.41-.21,15.36-.09,22.19-.79,23.86-.37,44.69-1.17,67-1.09,1.45,0,2.79.2,4.24.21,3.35,0,7.21-.3,11.32-.31,3.88,0,8.05.13,11.79.07,5.49-.08,12.09-.59,16.5-.18a65.75,65.75,0,0,1,9.91,0,97.52,97.52,0,0,1,13.2-.2C281,.5,287.94.82,294.38.69c15.71-.33,31.08-.35,50-.09.89,0,.33-.3,1.42-.27,7.57.2,14.61-.15,25.47-.22,3.39,0,7.06.21,9.42.15C382,.22,382.8,0,384,0c2.13,0,4.23.19,6.59.22,4,.06,8.45-.11,12.26,0,8,.18,16,.56,23.56.59,3.24,0,5.51,0,8.48,0,4.4.08,8.26,0,12.25.34,25.72-.19,49.77,1.07,79.19.64,8.24.28,17.77.41,24,.13,20.23.56,36.53.11,52.79.58a47.15,47.15,0,0,1,8.49,0c9.47-.31,19.84.38,29.71-.1a108.25,108.25,0,0,0,12.25,0c11.64.14,24.87,0,38.66,0,3.28,0,6.3.11,9.43,0,8.75-.16,19.81.17,29.71-.1,8.73-.24,15.66-.57,25-.69,8.77-.1,17.52.1,25.47-.4a45.9,45.9,0,0,0,8.49-.05c16.35.5,30.56.06,46.67.36,1.67,0,3.35.26,5.17.3,1.64,0,2.45-.14,4.25-.16,2.61,0,5.49.29,8,.32,2.78,0,5.57-.18,8.49-.13l31.11.27c17.84.25,32.87.89,49.49.55,10.63.46,23.51.13,33.93.38,1.88,0,3.79.27,5.65.31,14.82.32,28.66,0,42.43.43a3.46,3.46,0,0,1,1.5.2,6.63,6.63,0,0,1,1.34.7,4.48,4.48,0,0,1,1.2,2.67c0,1,0,1.82,0,2.73,0,1.79-.07,3.56-.1,5.32,0,3.51,0,7,0,10.41s0,6.82,0,10.2l0,2.54a8.46,8.46,0,0,1-.23,2.51A3.9,3.9,0,0,1,1025.3,43.84Z"/></svg>
